# This file uses centimeters as units for non-parametric coordinates.

mtllib bag holder untextured.mtl
g default
v -2.000000 0.000000 1.000000
v 2.000000 0.000000 1.000000
v -2.000000 4.000000 1.000000
v 2.000000 4.000000 1.000000
v -2.000000 4.000000 -3.000000
v 2.000000 4.000000 -3.000000
v -2.000000 0.000000 -3.000000
v 2.000000 0.000000 -3.000000
v -2.000000 0.000000 1.000000
v 2.000000 0.000000 1.000000
v 2.000000 4.000000 1.000000
v -2.000000 4.000000 1.000000
v -2.000000 4.000000 -3.000000
v 2.000000 4.000000 -3.000000
v 2.000000 0.000000 -3.000000
v -2.000000 0.000000 -3.000000
v -2.000000 0.000000 41.000000
v 2.000000 0.000000 41.000000
v 2.000000 4.000000 41.000000
v -2.000000 4.000000 41.000000
v -2.000000 4.000000 -43.000000
v 2.000000 4.000000 -43.000000
v 2.000000 0.000000 -43.000000
v -2.000000 0.000000 -43.000000
v 42.000000 0.000000 -3.000000
v 42.000000 0.000000 1.000000
v 42.000000 4.000000 -3.000000
v 42.000000 4.000000 1.000000
v -42.000000 0.000000 -3.000000
v -42.000000 0.000000 1.000000
v -42.000000 4.000000 1.000000
v -42.000000 4.000000 -3.000000
v -2.000000 0.000000 45.599998
v 2.000000 0.000000 45.599998
v 2.000000 4.000000 45.599998
v -2.000000 4.000000 45.599998
v -2.000000 4.000000 -47.599998
v 2.000000 4.000000 -47.599998
v 2.000000 0.000000 -47.599998
v -2.000000 0.000000 -47.599998
v 46.599998 0.000000 -3.000000
v 46.599998 0.000000 1.000000
v 46.599998 4.000000 -3.000000
v 46.599998 4.000000 1.000000
v -46.599998 0.000000 -3.000000
v -46.599998 0.000000 1.000000
v -46.599998 4.000000 1.000000
v -46.599998 4.000000 -3.000000
v -2.000000 -5.991788 41.000000
v 2.000000 -5.991788 41.000000
v 2.000000 -5.991788 45.599998
v -2.000000 -5.991788 45.599998
v -2.000000 -5.991788 -43.000000
v 2.000000 -5.991788 -43.000000
v -2.000000 -5.991788 -47.599998
v 2.000000 -5.991788 -47.599998
v 42.000000 -5.991788 -3.000000
v 42.000000 -5.991788 1.000000
v 46.599998 -5.991788 -3.000000
v 46.599998 -5.991788 1.000000
v -42.000000 -5.991788 -3.000000
v -42.000000 -5.991788 1.000000
v -46.599998 -5.991788 1.000000
v -46.599998 -5.991788 -3.000000
v -2.000000 313.754486 1.000000
v 2.000000 313.754486 1.000000
v 2.000000 313.754486 -3.000000
v -2.000000 313.754486 -3.000000
v -2.000000 309.249420 1.000000
v -2.000000 309.249420 -3.000000
v 2.000000 309.249420 -3.000000
v 2.000000 309.249420 1.000000
v -16.499998 309.249420 1.000000
v -16.499998 309.249420 -3.000000
v -16.499998 313.754486 1.000000
v -16.499998 313.754486 -3.000000
v -2.000000 309.249420 -17.499998
v 2.000000 309.249420 -17.499998
v -2.000000 313.754486 -17.499998
v 2.000000 313.754486 -17.499998
v 16.499998 309.249420 -3.000000
v 16.499998 309.249420 1.000000
v 16.499998 313.754486 -3.000000
v 16.499998 313.754486 1.000000
v 2.000000 309.249420 15.499998
v -2.000000 309.249420 15.499998
v 2.000000 313.754486 15.499998
v -2.000000 313.754486 15.499998
v -17.099998 309.249420 1.000000
v -17.099998 309.249420 -3.000000
v -17.099998 313.754486 1.000000
v -17.099998 313.754486 -3.000000
v -2.000000 309.249420 -18.099998
v 2.000000 309.249420 -18.099998
v -2.000000 313.754486 -18.099998
v 2.000000 313.754486 -18.099998
v 17.099998 309.249420 -3.000000
v 17.099998 309.249420 1.000000
v 17.099998 313.754486 -3.000000
v 17.099998 313.754486 1.000000
v 2.000000 309.249420 16.099998
v -2.000000 309.249420 16.099998
v 2.000000 313.754486 16.099998
v -2.000000 313.754486 16.099998
v -17.599998 309.249420 1.000000
v -17.599998 309.249420 -3.000000
v -17.599998 311.803162 1.000000
v -17.599998 311.803162 -3.000000
v -2.000000 309.249420 -18.599998
v 2.000000 309.249420 -18.599998
v -2.000000 311.803162 -18.599998
v 2.000000 311.803162 -18.599998
v 17.599998 309.249420 -3.000000
v 17.599998 309.249420 1.000000
v 17.599998 311.803162 -3.000000
v 17.599998 311.803162 1.000000
v 2.000000 309.249420 16.599998
v -2.000000 309.249420 16.599998
v 2.000000 311.803162 16.599998
v -2.000000 311.803162 16.599998
v -20.199999 309.249420 1.000000
v -20.199999 309.249420 -3.000000
v -20.199999 311.803162 1.000000
v -20.199999 311.803162 -3.000000
v -2.000000 309.249420 -21.199999
v 2.000000 309.249420 -21.199999
v -2.000000 311.803162 -21.199999
v 2.000000 311.803162 -21.199999
v 20.199999 309.249420 -3.000000
v 20.199999 309.249420 1.000000
v 20.199999 311.803162 -3.000000
v 20.199999 311.803162 1.000000
v 2.000000 309.249420 19.199999
v -2.000000 309.249420 19.199999
v 2.000000 311.803162 19.199999
v -2.000000 311.803162 19.199999
v -20.799999 309.249420 1.000000
v -20.799999 309.249420 -3.000000
v -20.799999 313.754486 1.000000
v -20.799999 313.754486 -3.000000
v -2.000000 309.249420 -21.799999
v 2.000000 309.249420 -21.799999
v -2.000000 313.754486 -21.799999
v 2.000000 313.754486 -21.799999
v 20.799999 309.249420 -3.000000
v 20.799999 309.249420 1.000000
v 20.799999 313.754486 -3.000000
v 20.799999 313.754486 1.000000
v 2.000000 309.249420 19.799999
v -2.000000 309.249420 19.799999
v 2.000000 313.754486 19.799999
v -2.000000 313.754486 19.799999
v -21.599998 309.249420 1.000000
v -21.599998 309.249420 -3.000000
v -21.599998 313.754486 1.000000
v -21.599998 313.754486 -3.000000
v -2.000000 309.249420 -22.599998
v 2.000000 309.249420 -22.599998
v -2.000000 313.754486 -22.599998
v 2.000000 313.754486 -22.599998
v 21.599998 309.249420 -3.000000
v 21.599998 309.249420 1.000000
v 21.599998 313.754486 -3.000000
v 21.599998 313.754486 1.000000
v 2.000000 309.249420 20.599998
v -2.000000 309.249420 20.599998
v 2.000000 313.754486 20.599998
v -2.000000 313.754486 20.599998
v -23.699999 309.249420 1.000000
v -23.699999 309.249420 -3.000000
v -23.699999 313.754486 1.000000
v -23.699999 313.754486 -3.000000
v -2.000000 309.249420 -24.699999
v 2.000000 309.249420 -24.699999
v -2.000000 313.754486 -24.699999
v 2.000000 313.754486 -24.699999
v 23.699999 309.249420 -3.000000
v 23.699999 309.249420 1.000000
v 23.699999 313.754486 -3.000000
v 23.699999 313.754486 1.000000
v 2.000000 309.249420 22.699999
v -2.000000 309.249420 22.699999
v 2.000000 313.754486 22.699999
v -2.000000 313.754486 22.699999
vt 0.375000 0.000000
vt 0.625000 0.000000
vt 0.375000 0.250000
vt 0.625000 0.250000
vt 0.375000 0.500000
vt 0.625000 0.500000
vt 0.375000 0.750000
vt 0.625000 0.750000
vt 0.375000 1.000000
vt 0.625000 1.000000
vt 0.875000 0.000000
vt 0.875000 0.250000
vt 0.125000 0.000000
vt 0.125000 0.250000
vt 0.375000 0.000000
vt 0.625000 0.000000
vt 0.625000 0.250000
vt 0.375000 0.250000
vt 0.375000 0.500000
vt 0.625000 0.500000
vt 0.625000 0.750000
vt 0.375000 0.750000
vt 0.875000 0.000000
vt 0.875000 0.250000
vt 0.125000 0.000000
vt 0.125000 0.250000
vt 0.375000 0.000000
vt 0.625000 0.000000
vt 0.625000 0.250000
vt 0.375000 0.250000
vt 0.375000 0.500000
vt 0.625000 0.500000
vt 0.625000 0.750000
vt 0.375000 0.750000
vt 0.625000 0.000000
vt 0.875000 0.000000
vt 0.875000 0.250000
vt 0.625000 0.250000
vt 0.125000 0.000000
vt 0.375000 0.000000
vt 0.375000 0.250000
vt 0.125000 0.250000
vt 0.375000 0.000000
vt 0.625000 0.000000
vt 0.625000 0.250000
vt 0.375000 0.250000
vt 0.375000 0.500000
vt 0.625000 0.500000
vt 0.625000 0.750000
vt 0.375000 0.750000
vt 0.875000 0.000000
vt 0.875000 0.250000
vt 0.125000 0.000000
vt 0.125000 0.250000
vt 0.375000 0.000000
vt 0.625000 0.000000
vt 0.625000 0.000000
vt 0.375000 0.000000
vt 0.625000 0.750000
vt 0.375000 0.750000
vt 0.375000 0.750000
vt 0.625000 0.750000
vt 0.875000 0.000000
vt 0.875000 0.000000
vt 0.125000 0.000000
vt 0.125000 0.000000
vt 0.375000 0.250000
vt 0.625000 0.250000
vt 0.625000 0.500000
vt 0.375000 0.500000
vt 0.375000 0.250000
vt 0.375000 0.500000
vt 0.625000 0.500000
vt 0.625000 0.250000
vt 0.375000 0.500000
vt 0.375000 0.250000
vt 0.375000 0.250000
vt 0.375000 0.500000
vt 0.625000 0.500000
vt 0.375000 0.500000
vt 0.375000 0.500000
vt 0.625000 0.500000
vt 0.625000 0.250000
vt 0.625000 0.500000
vt 0.625000 0.500000
vt 0.625000 0.250000
vt 0.375000 0.250000
vt 0.625000 0.250000
vt 0.625000 0.250000
vt 0.375000 0.250000
vt 0.375000 0.500000
vt 0.375000 0.250000
vt 0.375000 0.250000
vt 0.375000 0.500000
vt 0.625000 0.500000
vt 0.625000 0.500000
vt 0.625000 0.250000
vt 0.625000 0.250000
vt 0.375000 0.500000
vt 0.375000 0.250000
vt 0.375000 0.250000
vt 0.375000 0.500000
vt 0.625000 0.500000
vt 0.625000 0.500000
vt 0.625000 0.250000
vt 0.625000 0.250000
vt 0.375000 0.500000
vt 0.375000 0.250000
vt 0.375000 0.250000
vt 0.375000 0.500000
vt 0.625000 0.500000
vt 0.625000 0.500000
vt 0.625000 0.250000
vt 0.625000 0.250000
vt 0.375000 0.500000
vt 0.375000 0.250000
vt 0.375000 0.250000
vt 0.375000 0.500000
vt 0.625000 0.500000
vt 0.625000 0.500000
vt 0.625000 0.250000
vt 0.625000 0.250000
vt 0.375000 0.500000
vt 0.375000 0.250000
vt 0.375000 0.250000
vt 0.375000 0.500000
vt 0.625000 0.500000
vt 0.625000 0.500000
vt 0.625000 0.250000
vt 0.625000 0.250000
vt 0.375000 0.500000
vt 0.375000 0.250000
vt 0.375000 0.250000
vt 0.375000 0.500000
vt 0.625000 0.500000
vt 0.625000 0.500000
vt 0.625000 0.250000
vt 0.625000 0.250000
vn -0.754605 0.000000 0.656179
vn 0.754605 0.000000 0.656179
vn 0.602350 0.602350 0.523783
vn -0.602350 0.602350 0.523783
vn -0.405444 0.819287 0.405443
vn 0.405444 0.819287 0.405443
vn 0.405444 0.819287 -0.405443
vn -0.405444 0.819287 -0.405443
vn -0.602350 0.602350 -0.523783
vn 0.602350 0.602350 -0.523783
vn 0.754605 0.000000 -0.656179
vn -0.754605 0.000000 -0.656179
vn 0.000000 -1.000000 0.000000
vn 0.000000 -1.000000 0.000000
vn 0.000000 -1.000000 0.000000
vn 0.000000 -1.000000 0.000000
vn 0.656179 0.000000 0.754605
vn 0.656179 0.000000 -0.754605
vn 0.523783 0.602350 -0.602350
vn 0.523783 0.602350 0.602350
vn -0.656179 0.000000 -0.754605
vn -0.656179 0.000000 0.754605
vn -0.523783 0.602350 0.602350
vn -0.523783 0.602350 -0.602350
vn 0.408248 -0.816497 0.408248
vn -0.408248 -0.816497 0.408248
vn 0.707107 0.000000 0.707107
vn -0.707107 0.000000 0.707107
vn -0.408248 0.816497 0.408248
vn 0.408248 0.816497 0.408248
vn -0.707107 0.000000 -0.707107
vn 0.707107 0.000000 -0.707107
vn 0.408248 0.816497 -0.408248
vn -0.408248 0.816497 -0.408248
vn -0.408248 -0.816497 -0.408248
vn 0.408248 -0.816497 -0.408248
vn 0.786397 -0.610906 -0.091510
vn -0.786397 -0.610906 -0.091510
vn 0.707107 0.707107 0.000000
vn -0.707107 0.707107 0.000000
vn 0.707107 0.707107 0.000000
vn -0.707107 0.707107 0.000000
vn 0.786397 -0.610906 0.091510
vn -0.786397 -0.610906 0.091510
vn -0.091510 -0.610906 -0.786397
vn -0.091510 -0.610906 0.786397
vn 0.000000 0.707107 -0.707107
vn 0.000000 0.707107 0.707107
vn 0.091510 -0.610906 0.786397
vn 0.091510 -0.610906 -0.786397
vn 0.000000 0.707107 0.707107
vn 0.000000 0.707107 -0.707107
vn -0.673923 -0.449898 -0.586020
vn 0.673923 -0.449898 -0.586020
vn 0.673923 -0.449898 0.586020
vn -0.673923 -0.449898 0.586020
vn 0.673923 -0.449898 0.586020
vn -0.673923 -0.449898 0.586020
vn -0.673923 -0.449898 -0.586020
vn 0.673923 -0.449898 -0.586020
vn -0.586020 -0.449898 0.673923
vn -0.586020 -0.449898 -0.673923
vn 0.586020 -0.449898 -0.673923
vn 0.586020 -0.449898 0.673923
vn 0.586020 -0.449898 -0.673923
vn 0.586020 -0.449898 0.673923
vn -0.586020 -0.449898 0.673923
vn -0.586020 -0.449898 -0.673923
vn 0.705674 -0.063637 0.705674
vn -0.705674 -0.063637 0.705674
vn 0.705674 -0.063637 -0.705674
vn -0.705674 -0.063637 -0.705674
vn -0.818432 -0.381506 -0.429677
vn -0.818432 -0.381506 0.429677
vn -0.818432 0.381506 0.429677
vn -0.818432 0.381506 -0.429677
vn 0.429677 -0.381506 -0.818432
vn -0.429677 -0.381506 -0.818432
vn -0.429677 0.381506 -0.818432
vn 0.429677 0.381506 -0.818432
vn 0.818432 -0.381506 0.429677
vn 0.818432 -0.381506 -0.429677
vn 0.818432 0.381506 -0.429677
vn 0.818432 0.381506 0.429677
vn -0.429677 -0.381506 0.818432
vn 0.429677 -0.381506 0.818432
vn 0.429677 0.381506 0.818432
vn -0.429677 0.381506 0.818432
vn 0.000000 -0.663947 0.747779
vn 0.000000 -0.663947 -0.747779
vn 0.000000 0.663947 0.747779
vn 0.000000 0.663947 -0.747779
vn -0.747780 -0.663946 0.000000
vn 0.747780 -0.663946 0.000000
vn -0.747780 0.663946 0.000000
vn 0.747780 0.663946 0.000000
vn 0.000000 -0.663947 -0.747779
vn 0.000000 -0.663947 0.747779
vn 0.000000 0.663947 -0.747779
vn 0.000000 0.663947 0.747779
vn 0.747780 -0.663946 0.000000
vn -0.747780 -0.663946 0.000000
vn 0.747780 0.663946 0.000000
vn -0.747780 0.663946 0.000000
vn 0.000000 -0.701685 0.712488
vn 0.000000 -0.701685 -0.712488
vn -0.826469 0.465897 0.316053
vn -0.826469 0.465897 -0.316053
vn -0.712488 -0.701685 0.000000
vn 0.712488 -0.701685 0.000000
vn -0.316052 0.465897 -0.826469
vn 0.316052 0.465897 -0.826469
vn 0.000000 -0.701685 -0.712488
vn 0.000000 -0.701685 0.712488
vn 0.826469 0.465897 -0.316053
vn 0.826469 0.465897 0.316053
vn 0.712488 -0.701685 0.000000
vn -0.712488 -0.701685 0.000000
vn 0.316052 0.465897 0.826469
vn -0.316052 0.465897 0.826469
vn 0.000000 -0.827782 0.561050
vn 0.000000 -0.827782 -0.561050
vn -0.441576 0.701516 0.559362
vn -0.441576 0.701516 -0.559362
vn -0.561051 -0.827781 0.000000
vn 0.561051 -0.827781 0.000000
vn -0.559364 0.701515 -0.441575
vn 0.559364 0.701515 -0.441575
vn 0.000000 -0.827782 -0.561050
vn 0.000000 -0.827782 0.561050
vn 0.441576 0.701516 -0.559362
vn 0.441576 0.701516 0.559362
vn 0.561051 -0.827781 0.000000
vn -0.561051 -0.827781 0.000000
vn 0.559364 0.701515 0.441575
vn -0.559364 0.701515 0.441575
vn 0.000000 -0.825324 0.564660
vn 0.000000 -0.825324 -0.564660
vn 0.426804 0.699921 0.572669
vn 0.426804 0.699921 -0.572669
vn -0.564661 -0.825323 0.000000
vn 0.564661 -0.825323 0.000000
vn -0.572669 0.699920 0.426804
vn 0.572669 0.699920 0.426804
vn 0.000000 -0.825324 -0.564660
vn 0.000000 -0.825324 0.564660
vn -0.426804 0.699921 -0.572669
vn -0.426804 0.699921 0.572669
vn 0.564661 -0.825323 0.000000
vn -0.564661 -0.825323 0.000000
vn 0.572669 0.699920 -0.426804
vn -0.572669 0.699920 -0.426804
vn 0.000000 -0.699466 0.714666
vn 0.000000 -0.699466 -0.714666
vn 0.749912 0.538033 0.384906
vn 0.749912 0.538033 -0.384906
vn -0.714666 -0.699466 0.000000
vn 0.714666 -0.699466 0.000000
vn -0.384906 0.538033 0.749912
vn 0.384906 0.538033 0.749912
vn 0.000000 -0.699466 -0.714666
vn 0.000000 -0.699466 0.714666
vn -0.749912 0.538033 -0.384906
vn -0.749912 0.538033 0.384906
vn 0.714666 -0.699466 0.000000
vn -0.714666 -0.699466 0.000000
vn 0.384906 0.538033 -0.749912
vn -0.384906 0.538033 -0.749912
vn 0.000000 -0.663946 0.747780
vn 0.000000 -0.663946 -0.747780
vn 0.000000 0.663946 0.747780
vn 0.000000 0.663946 -0.747780
vn -0.747780 -0.663946 0.000000
vn 0.747780 -0.663946 0.000000
vn -0.747780 0.663946 0.000000
vn 0.747780 0.663946 0.000000
vn 0.000000 -0.663946 -0.747780
vn 0.000000 -0.663946 0.747780
vn 0.000000 0.663946 -0.747780
vn 0.000000 0.663946 0.747780
vn 0.747780 -0.663946 0.000000
vn -0.747780 -0.663946 0.000000
vn 0.747780 0.663946 0.000000
vn -0.747780 0.663946 0.000000
s 1
g Bagholder
usemtl blinn1SG
f 33/43/1 34/44/2 35/45/3 36/46/4
f 65/67/5 66/68/6 67/69/7 68/70/8
f 37/47/9 38/48/10 39/49/11 40/50/12
f 7/7/13 8/8/14 2/10/15 1/9/16
f 42/44/17 41/51/18 43/52/19 44/45/20
f 45/53/21 46/43/22 47/46/23 48/54/24
f 1/1/16 2/2/15 10/16/25 9/15/26
f 4/4/27 3/3/28 12/18/29 11/17/30
f 5/5/31 6/6/32 14/20/33 13/19/34
f 8/8/14 7/7/13 16/22/35 15/21/36
f 2/2/15 8/11/14 15/23/36 10/16/25
f 6/12/32 4/4/27 11/17/30 14/24/33
f 7/13/13 1/1/16 9/15/26 16/25/35
f 3/3/28 5/14/31 13/26/34 12/18/29
f 9/15/26 10/16/25 18/28/37 17/27/38
f 10/16/25 11/17/30 19/29/39 18/28/37
f 11/17/30 12/18/29 20/30/40 19/29/39
f 12/18/29 9/15/26 17/27/38 20/30/40
f 13/19/34 14/20/33 22/32/41 21/31/42
f 14/20/33 15/21/36 23/33/43 22/32/41
f 15/21/36 16/22/35 24/34/44 23/33/43
f 16/22/35 13/19/34 21/31/42 24/34/44
f 10/16/25 15/23/36 25/36/45 26/35/46
f 15/23/36 14/24/33 27/37/47 25/36/45
f 14/24/33 11/17/30 28/38/48 27/37/47
f 11/17/30 10/16/25 26/35/46 28/38/48
f 16/25/35 9/15/26 30/40/49 29/39/50
f 9/15/26 12/18/29 31/41/51 30/40/49
f 12/18/29 13/26/34 32/42/52 31/41/51
f 13/26/34 16/25/35 29/39/50 32/42/52
f 49/55/53 50/56/54 51/57/55 52/58/56
f 18/16/37 19/17/39 35/45/3 34/44/2
f 19/17/39 20/41/40 36/46/4 35/45/3
f 20/41/40 17/40/38 33/43/1 36/46/4
f 21/19/42 22/20/41 38/48/10 37/47/9
f 22/20/41 23/21/43 39/49/11 38/48/10
f 54/59/57 53/60/58 55/61/59 56/62/60
f 24/22/44 21/19/42 37/47/9 40/50/12
f 58/56/61 57/63/62 59/64/63 60/57/64
f 25/23/45 27/24/47 43/52/19 41/51/18
f 27/24/47 28/17/48 44/45/20 43/52/19
f 28/17/48 26/16/46 42/44/17 44/45/20
f 61/65/65 62/55/66 63/58/67 64/66/68
f 30/40/49 31/41/51 47/46/23 46/43/22
f 31/41/51 32/42/52 48/54/24 47/46/23
f 32/42/52 29/39/50 45/53/21 48/54/24
f 17/40/38 18/16/37 50/56/54 49/55/53
f 18/16/37 34/44/2 51/57/55 50/56/54
f 34/44/2 33/43/1 52/58/56 51/57/55
f 33/43/1 17/40/38 49/55/53 52/58/56
f 23/21/43 24/22/44 53/60/58 54/59/57
f 24/22/44 40/50/12 55/61/59 53/60/58
f 40/50/12 39/49/11 56/62/60 55/61/59
f 39/49/11 23/21/43 54/59/57 56/62/60
f 26/16/46 25/23/45 57/63/62 58/56/61
f 25/23/45 41/51/18 59/64/63 57/63/62
f 41/51/18 42/44/17 60/57/64 59/64/63
f 42/44/17 26/16/46 58/56/61 60/57/64
f 29/39/50 30/40/49 62/55/66 61/65/65
f 30/40/49 46/43/22 63/58/67 62/55/66
f 46/43/22 45/53/21 64/66/68 63/58/67
f 45/53/21 29/39/50 61/65/65 64/66/68
f 3/3/28 4/4/27 72/74/69 69/71/70
f 4/4/27 6/6/32 71/73/71 72/74/69
f 6/6/32 5/5/31 70/72/72 71/73/71
f 5/5/31 3/3/28 69/71/70 70/72/72
f 170/131/73 169/132/74 171/133/75 172/134/76
f 174/135/77 173/131/78 175/134/79 176/136/80
f 178/137/81 177/135/82 179/136/83 180/138/84
f 182/132/85 181/137/86 183/138/87 184/133/88
f 70/72/72 69/71/70 73/76/89 74/75/90
f 69/71/70 65/67/5 75/77/91 73/76/89
f 65/67/5 68/70/8 76/78/92 75/77/91
f 68/70/8 70/72/72 74/75/90 76/78/92
f 71/73/71 70/72/72 77/80/93 78/79/94
f 70/72/72 68/70/8 79/81/95 77/80/93
f 68/70/8 67/69/7 80/82/96 79/81/95
f 67/69/7 71/73/71 78/79/94 80/82/96
f 72/74/69 71/73/71 81/84/97 82/83/98
f 71/73/71 67/69/7 83/85/99 81/84/97
f 67/69/7 66/68/6 84/86/100 83/85/99
f 66/68/6 72/74/69 82/83/98 84/86/100
f 69/71/70 72/74/69 85/88/101 86/87/102
f 72/74/69 66/68/6 87/89/103 85/88/101
f 66/68/6 65/67/5 88/90/104 87/89/103
f 65/67/5 69/71/70 86/87/102 88/90/104
f 74/72/90 73/87/89 89/92/105 90/91/106
f 73/87/89 75/90/91 91/93/107 89/92/105
f 75/90/91 76/70/92 92/94/108 91/93/107
f 76/70/92 74/72/90 90/91/106 92/94/108
f 78/73/94 77/72/93 93/91/109 94/95/110
f 77/72/93 79/70/95 95/94/111 93/91/109
f 79/70/95 80/69/96 96/96/112 95/94/111
f 80/69/96 78/73/94 94/95/110 96/96/112
f 82/88/98 81/73/97 97/95/113 98/97/114
f 81/73/97 83/69/99 99/96/115 97/95/113
f 83/69/99 84/89/100 100/98/116 99/96/115
f 84/89/100 82/88/98 98/97/114 100/98/116
f 86/87/102 85/88/101 101/97/117 102/92/118
f 85/88/101 87/89/103 103/98/119 101/97/117
f 87/89/103 88/90/104 104/93/120 103/98/119
f 88/90/104 86/87/102 102/92/118 104/93/120
f 90/91/106 89/92/105 105/100/121 106/99/122
f 89/92/105 91/93/107 107/101/123 105/100/121
f 91/93/107 92/94/108 108/102/124 107/101/123
f 92/94/108 90/91/106 106/99/122 108/102/124
f 94/95/110 93/91/109 109/99/125 110/103/126
f 93/91/109 95/94/111 111/102/127 109/99/125
f 95/94/111 96/96/112 112/104/128 111/102/127
f 96/96/112 94/95/110 110/103/126 112/104/128
f 98/97/114 97/95/113 113/103/129 114/105/130
f 97/95/113 99/96/115 115/104/131 113/103/129
f 99/96/115 100/98/116 116/106/132 115/104/131
f 100/98/116 98/97/114 114/105/130 116/106/132
f 102/92/118 101/97/117 117/105/133 118/100/134
f 101/97/117 103/98/119 119/106/135 117/105/133
f 103/98/119 104/93/120 120/101/136 119/106/135
f 104/93/120 102/92/118 118/100/134 120/101/136
f 106/99/122 105/100/121 121/108/137 122/107/138
f 105/100/121 107/101/123 123/109/139 121/108/137
f 107/101/123 108/102/124 124/110/140 123/109/139
f 108/102/124 106/99/122 122/107/138 124/110/140
f 110/103/126 109/99/125 125/107/141 126/111/142
f 109/99/125 111/102/127 127/110/143 125/107/141
f 111/102/127 112/104/128 128/112/144 127/110/143
f 112/104/128 110/103/126 126/111/142 128/112/144
f 114/105/130 113/103/129 129/111/145 130/113/146
f 113/103/129 115/104/131 131/112/147 129/111/145
f 115/104/131 116/106/132 132/114/148 131/112/147
f 116/106/132 114/105/130 130/113/146 132/114/148
f 118/100/134 117/105/133 133/113/149 134/108/150
f 117/105/133 119/106/135 135/114/151 133/113/149
f 119/106/135 120/101/136 136/109/152 135/114/151
f 120/101/136 118/100/134 134/108/150 136/109/152
f 122/107/138 121/108/137 137/116/153 138/115/154
f 121/108/137 123/109/139 139/117/155 137/116/153
f 123/109/139 124/110/140 140/118/156 139/117/155
f 124/110/140 122/107/138 138/115/154 140/118/156
f 126/111/142 125/107/141 141/115/157 142/119/158
f 125/107/141 127/110/143 143/118/159 141/115/157
f 127/110/143 128/112/144 144/120/160 143/118/159
f 128/112/144 126/111/142 142/119/158 144/120/160
f 130/113/146 129/111/145 145/119/161 146/121/162
f 129/111/145 131/112/147 147/120/163 145/119/161
f 131/112/147 132/114/148 148/122/164 147/120/163
f 132/114/148 130/113/146 146/121/162 148/122/164
f 134/108/150 133/113/149 149/121/165 150/116/166
f 133/113/149 135/114/151 151/122/167 149/121/165
f 135/114/151 136/109/152 152/117/168 151/122/167
f 136/109/152 134/108/150 150/116/166 152/117/168
f 138/115/154 137/116/153 153/124/169 154/123/170
f 137/116/153 139/117/155 155/125/171 153/124/169
f 139/117/155 140/118/156 156/126/172 155/125/171
f 140/118/156 138/115/154 154/123/170 156/126/172
f 142/119/158 141/115/157 157/123/173 158/127/174
f 141/115/157 143/118/159 159/126/175 157/123/173
f 143/118/159 144/120/160 160/128/176 159/126/175
f 144/120/160 142/119/158 158/127/174 160/128/176
f 146/121/162 145/119/161 161/127/177 162/129/178
f 145/119/161 147/120/163 163/128/179 161/127/177
f 147/120/163 148/122/164 164/130/180 163/128/179
f 148/122/164 146/121/162 162/129/178 164/130/180
f 150/116/166 149/121/165 165/129/181 166/124/182
f 149/121/165 151/122/167 167/130/183 165/129/181
f 151/122/167 152/117/168 168/125/184 167/130/183
f 152/117/168 150/116/166 166/124/182 168/125/184
f 154/123/170 153/124/169 169/132/74 170/131/73
f 153/124/169 155/125/171 171/133/75 169/132/74
f 155/125/171 156/126/172 172/134/76 171/133/75
f 156/126/172 154/123/170 170/131/73 172/134/76
f 158/127/174 157/123/173 173/131/78 174/135/77
f 157/123/173 159/126/175 175/134/79 173/131/78
f 159/126/175 160/128/176 176/136/80 175/134/79
f 160/128/176 158/127/174 174/135/77 176/136/80
f 162/129/178 161/127/177 177/135/82 178/137/81
f 161/127/177 163/128/179 179/136/83 177/135/82
f 163/128/179 164/130/180 180/138/84 179/136/83
f 164/130/180 162/129/178 178/137/81 180/138/84
f 166/124/182 165/129/181 181/137/86 182/132/85
f 165/129/181 167/130/183 183/138/87 181/137/86
f 167/130/183 168/125/184 184/133/88 183/138/87
f 168/125/184 166/124/182 182/132/85 184/133/88
