# This file uses centimeters as units for non-parametric coordinates.

mtllib bed curtain untextured.mtl
g default
v 65.907715 249.532460 82.375771
v 65.907715 227.771107 82.375771
v 65.907715 206.009785 82.375771
v 65.907715 184.248433 82.375771
v 65.907715 162.487073 82.375771
v 65.907715 140.725735 82.375771
v 65.907715 118.964375 82.375771
v 65.907715 97.203038 82.375771
v 65.907715 75.441693 82.375771
v 65.907715 53.680325 82.375771
v 65.907715 31.919003 82.375771
v 65.907715 249.532460 60.614426
v 65.907715 227.771107 60.614426
v 65.907715 206.009785 60.614426
v 65.907715 184.248433 60.614426
v 65.907715 162.487073 60.614426
v 65.907715 140.725735 60.614426
v 65.907715 118.964375 60.614426
v 65.907715 97.203038 60.614426
v 65.907715 75.441693 60.614426
v 65.907715 53.680325 60.614426
v 65.907715 31.919003 60.614426
v 65.907715 249.532460 38.853081
v 65.907715 227.771107 38.853081
v 65.907715 206.009785 38.853081
v 65.907715 184.248433 38.853081
v 65.907715 162.487073 38.853081
v 65.907715 140.725735 38.853081
v 65.907715 118.964375 38.853081
v 65.907715 97.203038 38.853081
v 65.907715 75.441693 38.853081
v 65.907715 53.680325 38.853081
v 65.907715 31.919003 38.853081
v 65.907715 249.532460 17.091730
v 65.907715 227.771107 17.091730
v 65.907715 206.009785 17.091730
v 65.907715 184.248433 17.091730
v 65.907715 162.487073 17.091730
v 65.907715 140.725735 17.091730
v 65.907715 118.964375 17.091730
v 65.907715 97.203038 17.091730
v 65.907715 75.441693 17.091730
v 65.907715 53.680325 17.091730
v 65.907715 31.919003 17.091730
v 65.907715 249.532460 -4.669615
v 65.907715 227.771107 -4.669615
v 65.907715 206.009785 -4.669615
v 65.907715 184.248433 -4.669615
v 65.907715 162.487073 -4.669615
v 65.907715 140.725735 -4.669615
v 65.907715 118.964375 -4.669615
v 65.907715 97.203038 -4.669615
v 65.907715 75.441693 -4.669615
v 65.907715 53.680325 -4.669615
v 65.907715 31.919003 -4.669615
v 65.907715 249.532460 -26.430960
v 65.907715 227.771107 -26.430960
v 65.907715 206.009785 -26.430960
v 65.907715 184.248433 -26.430960
v 65.907715 162.487073 -26.430960
v 65.907715 140.725735 -26.430960
v 65.907715 118.964375 -26.430960
v 65.907715 97.203038 -26.430960
v 65.907715 75.441693 -26.430960
v 65.907715 53.680325 -26.430960
v 65.907715 31.919003 -26.430960
v 65.907715 249.532460 -48.192314
v 65.907715 227.771107 -48.192314
v 65.907715 206.009785 -48.192314
v 65.907715 184.248433 -48.192314
v 65.907715 162.487073 -48.192314
v 65.907715 140.725735 -48.192314
v 65.907715 118.964375 -48.192314
v 65.907715 97.203038 -48.192314
v 65.907715 75.441693 -48.192314
v 65.907715 53.680325 -48.192314
v 65.907715 31.919003 -48.192314
v 65.907715 249.532460 -69.953651
v 65.907715 227.771107 -69.953651
v 65.907715 206.009785 -69.953651
v 65.907715 184.248433 -69.953651
v 65.907715 162.487073 -69.953651
v 65.907715 140.725735 -69.953651
v 65.907715 118.964375 -69.953651
v 65.907715 97.203038 -69.953651
v 65.907715 75.441693 -69.953651
v 65.907715 53.680325 -69.953651
v 65.907715 31.919003 -69.953651
v 65.907715 249.532460 -91.715004
v 65.907715 227.771107 -91.715004
v 65.907715 206.009785 -91.715004
v 65.907715 184.248433 -91.715004
v 65.907715 162.487073 -91.715004
v 65.907715 140.725735 -91.715004
v 65.907715 118.964375 -91.715004
v 65.907715 97.203038 -91.715004
v 65.907715 75.441693 -91.715004
v 65.907715 53.680325 -91.715004
v 65.907715 31.919003 -91.715004
v 51.855694 249.532460 -115.841927
v 51.855694 227.771107 -115.841927
v 51.855694 206.009785 -115.841927
v 51.855694 184.248433 -115.841927
v 51.855694 162.487073 -115.841927
v 51.855694 140.725735 -115.841927
v 51.855694 118.964375 -115.841927
v 51.855694 97.203038 -115.841927
v 51.855694 75.441693 -115.841927
v 51.855694 53.680325 -115.841927
v 51.855694 31.919003 -115.841927
v 66.373314 249.532460 -112.372375
v 63.522682 249.532460 -115.400452
v 66.373314 227.771107 -112.372375
v 63.522682 227.771107 -115.400452
v 66.373314 206.009785 -112.372375
v 63.522682 206.009785 -115.400452
v 66.373314 184.248433 -112.372375
v 63.522682 184.248433 -115.400452
v 66.373314 162.487073 -112.372375
v 63.522682 162.487073 -115.400452
v 66.373314 140.725735 -112.372375
v 63.522682 140.725735 -115.400452
v 66.373314 118.964375 -112.372375
v 63.522682 118.964375 -115.400452
v 66.373314 97.203038 -112.372375
v 63.522682 97.203038 -115.400452
v 66.373314 75.441693 -112.372375
v 63.522682 75.441693 -115.400452
v 66.373314 53.680325 -112.372375
v 63.522682 53.680325 -115.400452
v 63.522682 31.919003 -115.400452
v 66.373314 31.919003 -112.372375
vt 0.000000 0.000000
vt 0.100000 0.000000
vt 0.200000 0.000000
vt 0.300000 0.000000
vt 0.400000 0.000000
vt 0.500000 0.000000
vt 0.600000 0.000000
vt 0.700000 0.000000
vt 0.800000 0.000000
vt 0.900000 0.000000
vt 1.000000 0.000000
vt 0.000000 0.100000
vt 0.100000 0.100000
vt 0.200000 0.100000
vt 0.300000 0.100000
vt 0.400000 0.100000
vt 0.500000 0.100000
vt 0.600000 0.100000
vt 0.700000 0.100000
vt 0.800000 0.100000
vt 0.900000 0.100000
vt 1.000000 0.100000
vt 0.000000 0.200000
vt 0.100000 0.200000
vt 0.200000 0.200000
vt 0.300000 0.200000
vt 0.400000 0.200000
vt 0.500000 0.200000
vt 0.600000 0.200000
vt 0.700000 0.200000
vt 0.800000 0.200000
vt 0.900000 0.200000
vt 1.000000 0.200000
vt 0.000000 0.300000
vt 0.100000 0.300000
vt 0.200000 0.300000
vt 0.300000 0.300000
vt 0.400000 0.300000
vt 0.500000 0.300000
vt 0.600000 0.300000
vt 0.700000 0.300000
vt 0.800000 0.300000
vt 0.900000 0.300000
vt 1.000000 0.300000
vt 0.000000 0.400000
vt 0.100000 0.400000
vt 0.200000 0.400000
vt 0.300000 0.400000
vt 0.400000 0.400000
vt 0.500000 0.400000
vt 0.600000 0.400000
vt 0.700000 0.400000
vt 0.800000 0.400000
vt 0.900000 0.400000
vt 1.000000 0.400000
vt 0.000000 0.500000
vt 0.100000 0.500000
vt 0.200000 0.500000
vt 0.300000 0.500000
vt 0.400000 0.500000
vt 0.500000 0.500000
vt 0.600000 0.500000
vt 0.700000 0.500000
vt 0.800000 0.500000
vt 0.900000 0.500000
vt 1.000000 0.500000
vt 0.000000 0.600000
vt 0.100000 0.600000
vt 0.200000 0.600000
vt 0.300000 0.600000
vt 0.400000 0.600000
vt 0.500000 0.600000
vt 0.600000 0.600000
vt 0.700000 0.600000
vt 0.800000 0.600000
vt 0.900000 0.600000
vt 1.000000 0.600000
vt 0.000000 0.700000
vt 0.100000 0.700000
vt 0.200000 0.700000
vt 0.300000 0.700000
vt 0.400000 0.700000
vt 0.500000 0.700000
vt 0.600000 0.700000
vt 0.700000 0.700000
vt 0.800000 0.700000
vt 0.900000 0.700000
vt 1.000000 0.700000
vt 0.000000 0.800000
vt 0.000000 0.919998
vt 1.000000 0.887624
vt 0.100000 0.800000
vt 0.000000 0.887624
vt 0.200000 0.800000
vt 0.100000 0.887624
vt 0.300000 0.800000
vt 0.200000 0.887624
vt 0.400000 0.800000
vt 0.300000 0.887624
vt 0.500000 0.800000
vt 0.400000 0.887624
vt 0.600000 0.800000
vt 0.500000 0.887624
vt 0.700000 0.800000
vt 0.600000 0.887624
vt 0.800000 0.800000
vt 0.700000 0.887624
vt 0.900000 0.800000
vt 0.800000 0.887624
vt 1.000000 0.800000
vt 0.900000 0.887624
vt 0.100000 0.919998
vt 0.100000 1.000000
vt 0.000000 1.000000
vt 0.200000 0.919998
vt 0.200000 1.000000
vt 0.300000 0.919998
vt 0.300000 1.000000
vt 0.400000 0.919998
vt 0.400000 1.000000
vt 0.500000 0.919998
vt 0.500000 1.000000
vt 0.600000 0.919998
vt 0.600000 1.000000
vt 0.700000 0.919998
vt 0.700000 1.000000
vt 0.800000 0.919998
vt 0.800000 1.000000
vt 0.900000 0.919998
vt 0.900000 1.000000
vt 1.000000 0.919998
vt 1.000000 1.000000
vn 1.000000 0.000000 0.000000
vn 1.000000 0.000000 0.000000
vn 1.000000 0.000000 0.000000
vn 1.000000 0.000000 0.000000
vn 1.000000 0.000000 0.000000
vn 1.000000 0.000000 0.000000
vn 1.000000 0.000000 0.000000
vn 1.000000 0.000000 0.000000
vn 1.000000 0.000000 0.000000
vn 1.000000 0.000000 0.000000
vn 1.000000 0.000000 0.000000
vn 1.000000 0.000000 0.000000
vn 1.000000 0.000000 0.000000
vn 1.000000 0.000000 0.000000
vn 1.000000 0.000000 0.000000
vn 1.000000 0.000000 0.000000
vn 1.000000 0.000000 0.000000
vn 1.000000 0.000000 0.000000
vn 1.000000 0.000000 0.000000
vn 1.000000 0.000000 0.000000
vn 1.000000 0.000000 0.000000
vn 1.000000 0.000000 0.000000
vn 1.000000 0.000000 0.000000
vn 1.000000 0.000000 0.000000
vn 1.000000 0.000000 0.000000
vn 1.000000 0.000000 0.000000
vn 1.000000 0.000000 0.000000
vn 1.000000 0.000000 0.000000
vn 1.000000 0.000000 0.000000
vn 1.000000 0.000000 0.000000
vn 1.000000 0.000000 0.000000
vn 1.000000 0.000000 0.000000
vn 1.000000 0.000000 0.000000
vn 1.000000 0.000000 0.000000
vn 1.000000 0.000000 0.000000
vn 1.000000 0.000000 0.000000
vn 1.000000 0.000000 0.000000
vn 1.000000 0.000000 0.000000
vn 1.000000 0.000000 0.000000
vn 1.000000 0.000000 0.000000
vn 1.000000 0.000000 0.000000
vn 1.000000 0.000000 0.000000
vn 1.000000 0.000000 0.000000
vn 1.000000 0.000000 0.000000
vn 1.000000 0.000000 0.000000
vn 1.000000 0.000000 0.000000
vn 1.000000 0.000000 0.000000
vn 1.000000 0.000000 0.000000
vn 1.000000 0.000000 0.000000
vn 1.000000 0.000000 0.000000
vn 1.000000 0.000000 0.000000
vn 1.000000 0.000000 0.000000
vn 1.000000 0.000000 0.000000
vn 1.000000 0.000000 0.000000
vn 1.000000 0.000000 0.000000
vn 1.000000 0.000000 0.000000
vn 1.000000 0.000000 0.000000
vn 1.000000 0.000000 0.000000
vn 1.000000 0.000000 0.000000
vn 1.000000 0.000000 0.000000
vn 1.000000 0.000000 0.000000
vn 1.000000 0.000000 0.000000
vn 1.000000 0.000000 0.000000
vn 1.000000 0.000000 0.000000
vn 1.000000 0.000000 0.000000
vn 1.000000 0.000000 0.000000
vn 1.000000 0.000000 0.000000
vn 1.000000 0.000000 0.000000
vn 1.000000 0.000000 0.000000
vn 1.000000 0.000000 0.000000
vn 1.000000 0.000000 0.000000
vn 1.000000 0.000000 0.000000
vn 1.000000 0.000000 0.000000
vn 1.000000 0.000000 0.000000
vn 1.000000 0.000000 0.000000
vn 1.000000 0.000000 0.000000
vn 1.000000 0.000000 0.000000
vn 1.000000 0.000000 0.000000
vn 1.000000 0.000000 0.000000
vn 1.000000 0.000000 0.000000
vn 1.000000 0.000000 0.000000
vn 1.000000 0.000000 0.000000
vn 1.000000 0.000000 0.000000
vn 1.000000 0.000000 0.000000
vn 1.000000 0.000000 0.000000
vn 1.000000 0.000000 0.000000
vn 1.000000 0.000000 0.000000
vn 1.000000 0.000000 0.000000
vn 0.999940 0.000000 0.010976
vn 0.999940 0.000000 0.010976
vn 0.999940 0.000000 0.010976
vn 0.999940 0.000000 0.010976
vn 0.999940 0.000000 0.010976
vn 0.999940 0.000000 0.010976
vn 0.999940 0.000000 0.010976
vn 0.999940 0.000000 0.010976
vn 0.999940 0.000000 0.010976
vn 0.999940 0.000000 0.010976
vn 0.999940 0.000000 0.010976
vn 0.232443 0.000000 -0.972610
vn 0.994968 0.000000 -0.100189
vn 0.994968 0.000000 -0.100189
vn 0.232443 0.000000 -0.972610
vn 0.994968 0.000000 -0.100189
vn 0.232443 0.000000 -0.972610
vn 0.994968 0.000000 -0.100189
vn 0.232443 0.000000 -0.972610
vn 0.994968 0.000000 -0.100189
vn 0.232443 0.000000 -0.972610
vn 0.994968 0.000000 -0.100189
vn 0.232443 0.000000 -0.972610
vn 0.994968 0.000000 -0.100189
vn 0.232443 0.000000 -0.972610
vn 0.994968 0.000000 -0.100189
vn 0.232443 0.000000 -0.972610
vn 0.994968 0.000000 -0.100189
vn 0.232443 0.000000 -0.972610
vn 0.994968 0.000000 -0.100189
vn 0.232443 0.000000 -0.972610
vn 0.994968 0.000000 -0.100189
vn 0.232444 0.000000 -0.972610
vn 0.037812 0.000000 -0.999285
vn 0.037812 0.000000 -0.999285
vn 0.037812 0.000000 -0.999285
vn 0.037812 0.000000 -0.999285
vn 0.037813 0.000000 -0.999285
vn 0.037813 0.000000 -0.999285
vn 0.037813 0.000000 -0.999285
vn 0.037813 0.000000 -0.999285
vn 0.037812 0.000000 -0.999285
vn 0.037812 0.000000 -0.999285
vn 0.037813 0.000000 -0.999285
s 1
g Cloth Curtain
usemtl lambert2SG
f 1/1/1 2/2/2 13/13/3 12/12/4
f 2/2/2 3/3/5 14/14/6 13/13/3
f 3/3/5 4/4/7 15/15/8 14/14/6
f 4/4/7 5/5/9 16/16/10 15/15/8
f 5/5/9 6/6/11 17/17/12 16/16/10
f 6/6/11 7/7/13 18/18/14 17/17/12
f 7/7/13 8/8/15 19/19/16 18/18/14
f 8/8/15 9/9/17 20/20/18 19/19/16
f 9/9/17 10/10/19 21/21/20 20/20/18
f 10/10/19 11/11/21 22/22/22 21/21/20
f 12/12/4 13/13/3 24/24/23 23/23/24
f 13/13/3 14/14/6 25/25/25 24/24/23
f 14/14/6 15/15/8 26/26/26 25/25/25
f 15/15/8 16/16/10 27/27/27 26/26/26
f 16/16/10 17/17/12 28/28/28 27/27/27
f 17/17/12 18/18/14 29/29/29 28/28/28
f 18/18/14 19/19/16 30/30/30 29/29/29
f 19/19/16 20/20/18 31/31/31 30/30/30
f 20/20/18 21/21/20 32/32/32 31/31/31
f 21/21/20 22/22/22 33/33/33 32/32/32
f 23/23/24 24/24/23 35/35/34 34/34/35
f 24/24/23 25/25/25 36/36/36 35/35/34
f 25/25/25 26/26/26 37/37/37 36/36/36
f 26/26/26 27/27/27 38/38/38 37/37/37
f 27/27/27 28/28/28 39/39/39 38/38/38
f 28/28/28 29/29/29 40/40/40 39/39/39
f 29/29/29 30/30/30 41/41/41 40/40/40
f 30/30/30 31/31/31 42/42/42 41/41/41
f 31/31/31 32/32/32 43/43/43 42/42/42
f 32/32/32 33/33/33 44/44/44 43/43/43
f 34/34/35 35/35/34 46/46/45 45/45/46
f 35/35/34 36/36/36 47/47/47 46/46/45
f 36/36/36 37/37/37 48/48/48 47/47/47
f 37/37/37 38/38/38 49/49/49 48/48/48
f 38/38/38 39/39/39 50/50/50 49/49/49
f 39/39/39 40/40/40 51/51/51 50/50/50
f 40/40/40 41/41/41 52/52/52 51/51/51
f 41/41/41 42/42/42 53/53/53 52/52/52
f 42/42/42 43/43/43 54/54/54 53/53/53
f 43/43/43 44/44/44 55/55/55 54/54/54
f 45/45/46 46/46/45 57/57/56 56/56/57
f 46/46/45 47/47/47 58/58/58 57/57/56
f 47/47/47 48/48/48 59/59/59 58/58/58
f 48/48/48 49/49/49 60/60/60 59/59/59
f 49/49/49 50/50/50 61/61/61 60/60/60
f 50/50/50 51/51/51 62/62/62 61/61/61
f 51/51/51 52/52/52 63/63/63 62/62/62
f 52/52/52 53/53/53 64/64/64 63/63/63
f 53/53/53 54/54/54 65/65/65 64/64/64
f 54/54/54 55/55/55 66/66/66 65/65/65
f 56/56/57 57/57/56 68/68/67 67/67/68
f 57/57/56 58/58/58 69/69/69 68/68/67
f 58/58/58 59/59/59 70/70/70 69/69/69
f 59/59/59 60/60/60 71/71/71 70/70/70
f 60/60/60 61/61/61 72/72/72 71/71/71
f 61/61/61 62/62/62 73/73/73 72/72/72
f 62/62/62 63/63/63 74/74/74 73/73/73
f 63/63/63 64/64/64 75/75/75 74/74/74
f 64/64/64 65/65/65 76/76/76 75/75/75
f 65/65/65 66/66/66 77/77/77 76/76/76
f 67/67/68 68/68/67 79/79/78 78/78/79
f 68/68/67 69/69/69 80/80/80 79/79/78
f 69/69/69 70/70/70 81/81/81 80/80/80
f 70/70/70 71/71/71 82/82/82 81/81/81
f 71/71/71 72/72/72 83/83/83 82/82/82
f 72/72/72 73/73/73 84/84/84 83/83/83
f 73/73/73 74/74/74 85/85/85 84/84/84
f 74/74/74 75/75/75 86/86/86 85/85/85
f 75/75/75 76/76/76 87/87/87 86/86/86
f 76/76/76 77/77/77 88/88/88 87/87/87
f 78/78/79 79/79/78 90/92/89 89/89/90
f 79/79/78 80/80/80 91/94/91 90/92/89
f 80/80/80 81/81/81 92/96/92 91/94/91
f 81/81/81 82/82/82 93/98/93 92/96/92
f 82/82/82 83/83/83 94/100/94 93/98/93
f 83/83/83 84/84/84 95/102/95 94/100/94
f 84/84/84 85/85/85 96/104/96 95/102/95
f 85/85/85 86/86/86 97/106/97 96/104/96
f 86/86/86 87/87/87 98/108/98 97/106/97
f 87/87/87 88/88/88 99/110/99 98/108/98
f 112/90/100 111/93/101 113/95/102 114/112/103
f 114/112/103 113/95/102 115/97/104 116/115/105
f 116/115/105 115/97/104 117/99/106 118/117/107
f 118/117/107 117/99/106 119/101/108 120/119/109
f 120/119/109 119/101/108 121/103/110 122/121/111
f 122/121/111 121/103/110 123/105/112 124/123/113
f 124/123/113 123/105/112 125/107/114 126/125/115
f 126/125/115 125/107/114 127/109/116 128/127/117
f 128/127/117 127/109/116 129/111/118 130/129/119
f 130/129/119 129/111/118 132/91/120 131/131/121
f 89/89/90 90/92/89 113/95/102 111/93/101
f 90/92/89 91/94/91 115/97/104 113/95/102
f 91/94/91 92/96/92 117/99/106 115/97/104
f 92/96/92 93/98/93 119/101/108 117/99/106
f 93/98/93 94/100/94 121/103/110 119/101/108
f 94/100/94 95/102/95 123/105/112 121/103/110
f 95/102/95 96/104/96 125/107/114 123/105/112
f 96/104/96 97/106/97 127/109/116 125/107/114
f 97/106/97 98/108/98 129/111/118 127/109/116
f 98/108/98 99/110/99 132/91/120 129/111/118
f 112/90/100 114/112/103 101/113/122 100/114/123
f 114/112/103 116/115/105 102/116/124 101/113/122
f 116/115/105 118/117/107 103/118/125 102/116/124
f 118/117/107 120/119/109 104/120/126 103/118/125
f 120/119/109 122/121/111 105/122/127 104/120/126
f 122/121/111 124/123/113 106/124/128 105/122/127
f 124/123/113 126/125/115 107/126/129 106/124/128
f 126/125/115 128/127/117 108/128/130 107/126/129
f 128/127/117 130/129/119 109/130/131 108/128/130
f 130/129/119 131/131/121 110/132/132 109/130/131
g default
v 63.874504 247.099415 -112.892288
v 68.874504 247.099415 -112.892288
v 63.874504 252.099415 -112.892288
v 68.874504 252.099415 -112.892288
v 63.874504 252.099415 -117.892288
v 68.874504 252.099415 -117.892288
v 63.874504 247.099415 -117.892288
v 68.874504 247.099415 -117.892288
v 63.874504 247.099415 105.420113
v 68.874504 247.099415 105.420113
v 68.874504 252.099415 105.420113
v 63.874504 252.099415 105.420113
v 63.874504 247.099415 110.468452
v 68.874504 247.099415 110.468452
v 68.874504 252.099415 110.468452
v 63.874504 252.099415 110.468452
v -63.874504 247.099415 -112.892288
v -68.874504 247.099415 -112.892288
v -63.874504 252.099415 -112.892288
v -68.874504 252.099415 -112.892288
v -63.874504 252.099415 -117.892288
v -68.874504 252.099415 -117.892288
v -63.874504 247.099415 -117.892288
v -68.874504 247.099415 -117.892288
v -63.874504 247.099415 105.420113
v -68.874504 247.099415 105.420113
v -68.874504 252.099415 105.420113
v -63.874504 252.099415 105.420113
v -63.874504 247.099415 110.468452
v -68.874504 247.099415 110.468452
v -68.874504 252.099415 110.468452
v -63.874504 252.099415 110.468452
v 0.000000 247.099415 -112.892288
v 0.000000 252.099415 -112.892288
v 0.000000 252.099415 -117.892288
v 0.000000 247.099415 -117.892288
vt 0.375000 0.000000
vt 0.625000 0.000000
vt 0.375000 0.250000
vt 0.625000 0.250000
vt 0.375000 0.500000
vt 0.625000 0.500000
vt 0.375000 0.750000
vt 0.625000 0.750000
vt 0.375000 1.000000
vt 0.625000 1.000000
vt 0.875000 0.000000
vt 0.875000 0.250000
vt 0.125000 0.000000
vt 0.125000 0.250000
vt 0.375000 0.000000
vt 0.625000 0.000000
vt 0.625000 0.250000
vt 0.375000 0.250000
vt 0.375000 0.000000
vt 0.625000 0.000000
vt 0.625000 0.250000
vt 0.375000 0.250000
vt 0.375000 0.000000
vt 0.625000 0.000000
vt 0.625000 0.250000
vt 0.375000 0.250000
vt 0.375000 0.250000
vt 0.625000 0.250000
vt 0.625000 0.500000
vt 0.375000 0.500000
vt 0.625000 0.750000
vt 0.375000 0.750000
vt 0.625000 1.000000
vt 0.375000 1.000000
vt 0.625000 0.000000
vt 0.875000 0.000000
vt 0.875000 0.250000
vt 0.375000 0.000000
vt 0.625000 0.000000
vt 0.375000 0.000000
vt 0.625000 0.250000
vt 0.375000 0.250000
vt 0.125000 0.000000
vt 0.125000 0.250000
vt 0.375000 0.000000
vt 0.375000 0.250000
vt 0.125000 0.250000
vt 0.125000 0.000000
vn -0.579194 -0.579194 0.573646
vn 0.579194 -0.579194 0.573646
vn 0.579194 0.579194 0.573646
vn -0.579194 0.579194 0.573646
vn -0.595903 0.783902 0.174351
vn 0.707107 0.707107 0.000000
vn 0.577351 0.577351 -0.577349
vn 0.000000 0.707106 -0.707107
vn 0.577351 -0.577351 -0.577349
vn 0.000000 -0.707106 -0.707107
vn 0.707107 -0.707107 0.000000
vn -0.595903 -0.783902 0.174351
vn 0.707107 -0.707107 0.000000
vn -0.707107 -0.707107 0.000000
vn 0.707107 0.707107 0.000000
vn -0.707107 0.707107 0.000000
vn 0.579194 -0.579194 0.573646
vn 0.579194 0.579194 0.573646
vn -0.579194 0.579194 0.573646
vn -0.579194 -0.579194 0.573646
vn 0.595903 0.783902 0.174351
vn 0.000000 0.707106 -0.707107
vn -0.577351 0.577351 -0.577349
vn -0.707107 0.707107 0.000000
vn 0.000000 -0.707106 -0.707107
vn -0.577351 -0.577351 -0.577349
vn 0.595903 -0.783902 0.174351
vn -0.707107 -0.707107 0.000000
vn 0.707107 -0.707107 0.000000
vn -0.707107 -0.707107 0.000000
vn -0.707107 0.707107 0.000000
vn 0.707107 0.707107 0.000000
vn 0.000000 -0.707106 -0.707107
vn 0.000000 -0.707106 0.707107
vn 0.000000 0.707106 0.707107
vn 0.000000 0.707106 -0.707107
s 1
g Curtain rail
usemtl blinn1SG
f 145/151/133 146/152/134 147/153/135 148/154/136
f 135/135/137 136/136/138 138/138/139 137/137/140
f 137/137/140 138/138/139 140/140/141 139/139/142
f 139/139/142 140/140/141 134/142/143 133/141/144
f 134/134/143 140/143/141 138/144/139 136/136/138
f 133/133/144 134/134/143 142/148/145 141/147/146
f 134/134/143 136/136/138 143/149/147 142/148/145
f 136/136/138 135/135/137 144/150/148 143/149/147
f 135/135/137 133/133/144 141/147/146 144/150/148
f 141/147/146 142/148/145 146/152/134 145/151/133
f 142/148/145 143/149/147 147/153/135 146/152/134
f 143/149/147 144/150/148 148/154/136 147/153/135
f 144/150/148 141/147/146 145/151/133 148/154/136
f 161/155/149 164/158/150 163/157/151 162/156/152
f 151/159/153 153/162/154 154/161/155 152/160/156
f 153/162/154 155/164/157 156/163/158 154/161/155
f 155/164/157 149/166/159 150/165/160 156/163/158
f 150/167/160 152/160/156 154/169/155 156/168/158
f 149/170/159 157/172/161 158/171/162 150/167/160
f 150/167/160 158/171/162 159/173/163 152/160/156
f 152/160/156 159/173/163 160/174/164 151/159/153
f 151/159/153 160/174/164 157/172/161 149/170/159
f 157/172/161 161/155/149 162/156/152 158/171/162
f 158/171/162 162/156/152 163/157/151 159/173/163
f 159/173/163 163/157/151 164/158/150 160/174/164
f 160/174/164 164/158/150 161/155/149 157/172/161
f 149/170/159 155/175/157 168/180/165 165/177/166
f 151/159/153 149/170/159 165/177/166 166/178/167
f 153/176/154 151/159/153 166/178/167 167/179/168
f 155/175/157 153/176/154 167/179/168 168/180/165
f 135/135/137 166/178/167 165/177/166 133/133/144
f 137/146/140 167/179/168 166/178/167 135/135/137
f 139/145/142 168/180/165 167/179/168 137/146/140
f 133/133/144 165/177/166 168/180/165 139/145/142
