# This file uses centimeters as units for non-parametric coordinates.

mtllib shelf untextured.mtl
g default
v -101.337463 -1.500000 26.221251
v -98.337463 -1.500000 26.221251
v -101.337463 183.921631 26.221251
v -98.337463 183.921631 26.221251
v -101.337463 183.921631 23.221251
v -98.337463 183.921631 23.221251
v -101.337463 -1.500000 23.221251
v -98.337463 -1.500000 23.221251
v -101.337463 -1.500000 -23.221001
v -98.337463 -1.500000 -23.221001
v -101.337463 183.921631 -23.221001
v -98.337463 183.921631 -23.221001
v -101.337463 183.921631 -26.221001
v -98.337463 183.921631 -26.221001
v -101.337463 -1.500000 -26.221001
v -98.337463 -1.500000 -26.221001
v 98.336998 -1.500000 -23.221001
v 101.336998 -1.500000 -23.221001
v 98.336998 183.921631 -23.221001
v 101.336998 183.921631 -23.221001
v 98.336998 183.921631 -26.221001
v 101.336998 183.921631 -26.221001
v 98.336998 -1.500000 -26.221001
v 101.336998 -1.500000 -26.221001
v 98.336998 -1.500000 26.221251
v 101.336998 -1.500000 26.221251
v 98.336998 183.921631 26.221251
v 101.336998 183.921631 26.221251
v 98.336998 183.921631 23.221251
v 101.336998 183.921631 23.221251
v 98.336998 -1.500000 23.221251
v 101.336998 -1.500000 23.221251
v -100.000000 34.945454 25.000000
v 100.000000 34.945454 25.000000
v -100.000000 36.945454 25.000000
v 100.000000 36.945454 25.000000
v -100.000000 36.945454 -25.000000
v 100.000000 36.945454 -25.000000
v -100.000000 34.945454 -25.000000
v 100.000000 34.945454 -25.000000
v -100.000000 103.864609 25.000000
v 100.000000 103.864609 25.000000
v -100.000000 105.864609 25.000000
v 100.000000 105.864609 25.000000
v -100.000000 105.864609 -25.000000
v 100.000000 105.864609 -25.000000
v -100.000000 103.864609 -25.000000
v 100.000000 103.864609 -25.000000
v -100.000000 167.693222 25.000000
v 100.000000 167.693222 25.000000
v -100.000000 169.693222 25.000000
v 100.000000 169.693222 25.000000
v -100.000000 169.693222 -25.000000
v 100.000000 169.693222 -25.000000
v -100.000000 167.693222 -25.000000
v 100.000000 167.693222 -25.000000
vt 0.375000 0.000000
vt 0.625000 0.000000
vt 0.375000 0.250000
vt 0.625000 0.250000
vt 0.375000 0.500000
vt 0.625000 0.500000
vt 0.375000 0.750000
vt 0.625000 0.750000
vt 0.375000 1.000000
vt 0.625000 1.000000
vt 0.875000 0.000000
vt 0.875000 0.250000
vt 0.125000 0.000000
vt 0.125000 0.250000
vt 0.375000 0.000000
vt 0.625000 0.000000
vt 0.625000 0.250000
vt 0.375000 0.250000
vt 0.625000 0.500000
vt 0.375000 0.500000
vt 0.625000 0.750000
vt 0.375000 0.750000
vt 0.625000 1.000000
vt 0.375000 1.000000
vt 0.875000 0.000000
vt 0.875000 0.250000
vt 0.125000 0.000000
vt 0.125000 0.250000
vt 0.375000 0.000000
vt 0.625000 0.000000
vt 0.625000 0.250000
vt 0.375000 0.250000
vt 0.625000 0.500000
vt 0.375000 0.500000
vt 0.625000 0.750000
vt 0.375000 0.750000
vt 0.625000 1.000000
vt 0.375000 1.000000
vt 0.875000 0.000000
vt 0.875000 0.250000
vt 0.125000 0.000000
vt 0.125000 0.250000
vt 0.375000 0.000000
vt 0.625000 0.000000
vt 0.625000 0.250000
vt 0.375000 0.250000
vt 0.625000 0.500000
vt 0.375000 0.500000
vt 0.625000 0.750000
vt 0.375000 0.750000
vt 0.625000 1.000000
vt 0.375000 1.000000
vt 0.875000 0.000000
vt 0.875000 0.250000
vt 0.125000 0.000000
vt 0.125000 0.250000
vt 0.375000 0.000000
vt 0.625000 0.000000
vt 0.625000 0.250000
vt 0.375000 0.250000
vt 0.625000 0.500000
vt 0.375000 0.500000
vt 0.625000 0.750000
vt 0.375000 0.750000
vt 0.625000 1.000000
vt 0.375000 1.000000
vt 0.875000 0.000000
vt 0.875000 0.250000
vt 0.125000 0.000000
vt 0.125000 0.250000
vt 0.375000 0.000000
vt 0.625000 0.000000
vt 0.625000 0.250000
vt 0.375000 0.250000
vt 0.625000 0.500000
vt 0.375000 0.500000
vt 0.625000 0.750000
vt 0.375000 0.750000
vt 0.625000 1.000000
vt 0.375000 1.000000
vt 0.875000 0.000000
vt 0.875000 0.250000
vt 0.125000 0.000000
vt 0.125000 0.250000
vt 0.375000 0.000000
vt 0.625000 0.000000
vt 0.625000 0.250000
vt 0.375000 0.250000
vt 0.625000 0.500000
vt 0.375000 0.500000
vt 0.625000 0.750000
vt 0.375000 0.750000
vt 0.625000 1.000000
vt 0.375000 1.000000
vt 0.875000 0.000000
vt 0.875000 0.250000
vt 0.125000 0.000000
vt 0.125000 0.250000
vn -0.707060 -0.011440 0.707061
vn 0.707060 -0.011440 0.707061
vn 0.707060 0.011440 0.707061
vn -0.707060 0.011440 0.707061
vn 0.707060 0.011440 -0.707061
vn -0.707060 0.011440 -0.707061
vn 0.707060 -0.011440 -0.707061
vn -0.707060 -0.011440 -0.707061
vn -0.707061 -0.011440 0.707060
vn 0.707061 -0.011440 0.707060
vn 0.707061 0.011440 0.707060
vn -0.707061 0.011440 0.707060
vn 0.707061 0.011440 -0.707060
vn -0.707061 0.011440 -0.707060
vn 0.707061 -0.011440 -0.707060
vn -0.707061 -0.011440 -0.707060
vn -0.707061 -0.011440 0.707060
vn 0.707061 -0.011440 0.707060
vn 0.707061 0.011440 0.707060
vn -0.707061 0.011440 0.707060
vn 0.707061 0.011440 -0.707060
vn -0.707061 0.011440 -0.707060
vn 0.707061 -0.011440 -0.707060
vn -0.707061 -0.011440 -0.707060
vn -0.707060 -0.011440 0.707061
vn 0.707060 -0.011440 0.707061
vn 0.707060 0.011440 0.707061
vn -0.707060 0.011440 0.707061
vn 0.707060 0.011440 -0.707061
vn -0.707060 0.011440 -0.707061
vn 0.707060 -0.011440 -0.707061
vn -0.707060 -0.011440 -0.707061
vn 0.000000 0.000000 1.000000
vn 0.000000 0.000000 1.000000
vn 0.000000 0.000000 1.000000
vn 0.000000 0.000000 1.000000
vn 0.000000 1.000000 0.000000
vn 0.000000 1.000000 0.000000
vn 0.000000 1.000000 0.000000
vn 0.000000 1.000000 0.000000
vn 0.000000 0.000000 -1.000000
vn 0.000000 0.000000 -1.000000
vn 0.000000 0.000000 -1.000000
vn 0.000000 0.000000 -1.000000
vn 0.000000 -1.000000 0.000000
vn 0.000000 -1.000000 0.000000
vn 0.000000 -1.000000 0.000000
vn 0.000000 -1.000000 0.000000
vn 1.000000 0.000000 0.000000
vn 1.000000 0.000000 0.000000
vn 1.000000 0.000000 0.000000
vn 1.000000 0.000000 0.000000
vn -1.000000 0.000000 0.000000
vn -1.000000 0.000000 0.000000
vn -1.000000 0.000000 0.000000
vn -1.000000 0.000000 0.000000
vn 0.000000 0.000000 1.000000
vn 0.000000 0.000000 1.000000
vn 0.000000 0.000000 1.000000
vn 0.000000 0.000000 1.000000
vn 0.000000 1.000000 0.000000
vn 0.000000 1.000000 0.000000
vn 0.000000 1.000000 0.000000
vn 0.000000 1.000000 0.000000
vn 0.000000 0.000000 -1.000000
vn 0.000000 0.000000 -1.000000
vn 0.000000 0.000000 -1.000000
vn 0.000000 0.000000 -1.000000
vn 0.000000 -1.000000 0.000000
vn 0.000000 -1.000000 0.000000
vn 0.000000 -1.000000 0.000000
vn 0.000000 -1.000000 0.000000
vn 1.000000 0.000000 0.000000
vn 1.000000 0.000000 0.000000
vn 1.000000 0.000000 0.000000
vn 1.000000 0.000000 0.000000
vn -1.000000 0.000000 0.000000
vn -1.000000 0.000000 0.000000
vn -1.000000 0.000000 0.000000
vn -1.000000 0.000000 0.000000
vn 0.000000 0.000000 1.000000
vn 0.000000 0.000000 1.000000
vn 0.000000 0.000000 1.000000
vn 0.000000 0.000000 1.000000
vn 0.000000 1.000000 0.000000
vn 0.000000 1.000000 0.000000
vn 0.000000 1.000000 0.000000
vn 0.000000 1.000000 0.000000
vn 0.000000 0.000000 -1.000000
vn 0.000000 0.000000 -1.000000
vn 0.000000 0.000000 -1.000000
vn 0.000000 0.000000 -1.000000
vn 0.000000 -1.000000 0.000000
vn 0.000000 -1.000000 0.000000
vn 0.000000 -1.000000 0.000000
vn 0.000000 -1.000000 0.000000
vn 1.000000 0.000000 0.000000
vn 1.000000 0.000000 0.000000
vn 1.000000 0.000000 0.000000
vn 1.000000 0.000000 0.000000
vn -1.000000 0.000000 0.000000
vn -1.000000 0.000000 0.000000
vn -1.000000 0.000000 0.000000
vn -1.000000 0.000000 0.000000
s 1
g pCube9 Storage_shelf
usemtl blinn1SG
f 1/1/1 2/2/2 4/4/3 3/3/4
f 3/3/4 4/4/3 6/6/5 5/5/6
f 5/5/6 6/6/5 8/8/7 7/7/8
f 7/7/8 8/8/7 2/10/2 1/9/1
f 2/2/2 8/11/7 6/12/5 4/4/3
f 7/13/8 1/1/1 3/3/4 5/14/6
s 2
f 9/15/9 10/16/10 12/17/11 11/18/12
f 11/18/12 12/17/11 14/19/13 13/20/14
f 13/20/14 14/19/13 16/21/15 15/22/16
f 15/22/16 16/21/15 10/23/10 9/24/9
f 10/16/10 16/25/15 14/26/13 12/17/11
f 15/27/16 9/15/9 11/18/12 13/28/14
s 3
f 17/29/17 18/30/18 20/31/19 19/32/20
f 19/32/20 20/31/19 22/33/21 21/34/22
f 21/34/22 22/33/21 24/35/23 23/36/24
f 23/36/24 24/35/23 18/37/18 17/38/17
f 18/30/18 24/39/23 22/40/21 20/31/19
f 23/41/24 17/29/17 19/32/20 21/42/22
s 4
f 25/43/25 26/44/26 28/45/27 27/46/28
f 27/46/28 28/45/27 30/47/29 29/48/30
f 29/48/30 30/47/29 32/49/31 31/50/32
f 31/50/32 32/49/31 26/51/26 25/52/25
f 26/44/26 32/53/31 30/54/29 28/45/27
f 31/55/32 25/43/25 27/46/28 29/56/30
s off
f 33/57/33 34/58/34 36/59/35 35/60/36
f 35/60/37 36/59/38 38/61/39 37/62/40
f 37/62/41 38/61/42 40/63/43 39/64/44
f 39/64/45 40/63/46 34/65/47 33/66/48
f 34/58/49 40/67/50 38/68/51 36/59/52
f 39/69/53 33/57/54 35/60/55 37/70/56
f 41/71/57 42/72/58 44/73/59 43/74/60
f 43/74/61 44/73/62 46/75/63 45/76/64
f 45/76/65 46/75/66 48/77/67 47/78/68
f 47/78/69 48/77/70 42/79/71 41/80/72
f 42/72/73 48/81/74 46/82/75 44/73/76
f 47/83/77 41/71/78 43/74/79 45/84/80
f 49/85/81 50/86/82 52/87/83 51/88/84
f 51/88/85 52/87/86 54/89/87 53/90/88
f 53/90/89 54/89/90 56/91/91 55/92/92
f 55/92/93 56/91/94 50/93/95 49/94/96
f 50/86/97 56/95/98 54/96/99 52/87/100
f 55/97/101 49/85/102 51/88/103 53/98/104
