# This file uses centimeters as units for non-parametric coordinates.

mtllib small table untextured.mtl
g default
v -40.000000 68.025206 40.000000
v -20.000000 68.025206 40.000000
v 0.000000 68.025206 40.000000
v 20.000000 68.025206 40.000000
v 40.000000 68.025206 40.000000
v -20.000000 71.025206 20.000000
v 0.000000 71.025206 20.000000
v 20.000000 71.025206 20.000000
v -20.000000 71.025206 0.000000
v 0.000000 71.025206 0.000000
v 20.000000 71.025206 0.000000
v -20.000000 71.025206 -20.000000
v 0.000000 71.025206 -20.000000
v 20.000000 71.025206 -20.000000
v -40.000000 68.025206 -40.000000
v -20.000000 68.025206 -40.000000
v 0.000000 68.025206 -40.000000
v 20.000000 68.025206 -40.000000
v 40.000000 68.025206 -40.000000
v -40.000000 68.025206 -20.000000
v -20.000000 68.025206 -20.000000
v 0.000000 68.025206 -20.000000
v 20.000000 68.025206 -20.000000
v 40.000000 68.025206 -20.000000
v -40.000000 68.025206 0.000000
v -20.000000 68.025206 0.000000
v 0.000000 68.025206 0.000000
v 20.000000 68.025206 0.000000
v 40.000000 68.025206 0.000000
v -40.000000 68.025206 20.000000
v -20.000000 68.025206 20.000000
v 0.000000 68.025206 20.000000
v 20.000000 68.025206 20.000000
v 40.000000 68.025206 20.000000
v -34.799999 68.025206 -32.400238
v -35.999878 68.025206 -35.999878
v -32.400238 68.025206 -34.799999
v -34.799999 0.025206 -32.400238
v -32.400238 0.025206 -34.799999
v -27.599760 68.025206 -34.799999
v -24.000120 68.025206 -35.999878
v -25.200001 68.025206 -32.400238
v -25.200001 0.025206 -32.400238
v -27.599760 0.025206 -34.799999
v -25.200001 68.025206 -27.599760
v -24.000120 68.025206 -24.000120
v -27.599760 68.025206 -25.200001
v -27.599760 0.025206 -25.200001
v -25.200001 0.025206 -27.599760
v -32.400238 68.025206 -25.200001
v -35.999878 68.025206 -24.000120
v -34.799999 68.025206 -27.599760
v -34.799999 0.025206 -27.599760
v -32.400238 0.025206 -25.200001
v 25.200001 68.025206 -32.400238
v 24.000120 68.025206 -35.999878
v 27.599760 68.025206 -34.799999
v 25.200001 0.025206 -32.400238
v 27.599760 0.025206 -34.799999
v 32.400238 68.025206 -34.799999
v 35.999878 68.025206 -35.999878
v 34.799999 68.025206 -32.400238
v 34.799999 0.025206 -32.400238
v 32.400238 0.025206 -34.799999
v 34.799999 68.025206 -27.599760
v 35.999878 68.025206 -24.000120
v 32.400238 68.025206 -25.200001
v 32.400238 0.025206 -25.200001
v 34.799999 0.025206 -27.599760
v 27.599760 68.025206 -25.200001
v 24.000120 68.025206 -24.000120
v 25.200001 68.025206 -27.599760
v 25.200001 0.025206 -27.599760
v 27.599760 0.025206 -25.200001
v -34.799999 68.025206 27.599760
v -35.999878 68.025206 24.000120
v -32.400238 68.025206 25.200001
v -34.799999 0.025206 27.599760
v -32.400238 0.025206 25.200001
v -27.599760 68.025206 25.200001
v -24.000120 68.025206 24.000120
v -25.200001 68.025206 27.599760
v -25.200001 0.025206 27.599760
v -27.599760 0.025206 25.200001
v -25.200001 68.025206 32.400238
v -24.000120 68.025206 35.999878
v -27.599760 68.025206 34.799999
v -27.599760 0.025206 34.799999
v -25.200001 0.025206 32.400238
v -32.400238 68.025206 34.799999
v -35.999878 68.025206 35.999878
v -34.799999 68.025206 32.400238
v -34.799999 0.025206 32.400238
v -32.400238 0.025206 34.799999
v 25.200001 68.025206 27.599760
v 24.000120 68.025206 24.000120
v 27.599760 68.025206 25.200001
v 25.200001 0.025206 27.599760
v 27.599760 0.025206 25.200001
v 32.400238 68.025206 25.200001
v 35.999878 68.025206 24.000120
v 34.799999 68.025206 27.599760
v 34.799999 0.025206 27.599760
v 32.400238 0.025206 25.200001
v 34.799999 68.025206 32.400238
v 35.999878 68.025206 35.999878
v 32.400238 68.025206 34.799999
v 32.400238 0.025206 34.799999
v 34.799999 0.025206 32.400238
v 27.599760 68.025206 34.799999
v 24.000120 68.025206 35.999878
v 25.200001 68.025206 32.400238
v 25.200001 0.025206 32.400238
v 27.599760 0.025206 34.799999
v -40.000000 69.825324 40.000000
v -38.800121 71.025206 38.800121
v -20.000000 69.825324 40.000000
v -20.000000 71.025206 38.800121
v 0.000000 69.825324 40.000000
v 0.000000 71.025206 38.800121
v 20.000000 69.825324 40.000000
v 20.000000 71.025206 38.800121
v 38.800121 71.025206 38.800121
v 40.000000 69.825324 40.000000
v -38.800121 71.025206 -38.800121
v -40.000000 69.825324 -40.000000
v -20.000000 71.025206 -38.800121
v -20.000000 69.825324 -40.000000
v 0.000000 71.025206 -38.800121
v 0.000000 69.825324 -40.000000
v 20.000000 71.025206 -38.800121
v 20.000000 69.825324 -40.000000
v 38.800121 71.025206 -38.800121
v 40.000000 69.825324 -40.000000
v -38.800121 71.025206 20.000000
v -40.000000 69.825324 20.000000
v 38.800121 71.025206 20.000000
v 40.000000 69.825324 20.000000
v -38.800121 71.025206 0.000000
v -40.000000 69.825324 0.000000
v 38.800121 71.025206 0.000000
v 40.000000 69.825324 0.000000
v -38.800121 71.025206 -20.000000
v -40.000000 69.825324 -20.000000
v 38.800121 71.025206 -20.000000
v 40.000000 69.825324 -20.000000
v 25.199999 66.048004 27.599758
v 25.200001 66.047970 32.400238
v 27.599758 66.048004 34.799999
v 32.400238 66.047970 34.799999
v 34.799999 66.048004 32.400238
v 34.799999 66.047970 27.599760
v 32.400238 66.048004 25.199999
v 27.599760 66.047970 25.200001
v -25.200001 66.047970 27.599760
v -25.199999 66.048004 32.400238
v -27.599760 66.047970 34.799999
v -32.400238 66.048004 34.799999
v -34.799999 66.047970 32.400238
v -34.799999 66.048004 27.599758
v -32.400238 66.047970 25.200001
v -27.599758 66.048004 25.199999
v 25.200001 65.976808 -32.400238
v 25.200001 65.976842 -27.599760
v 27.599762 65.976808 -25.200001
v 32.400238 65.976842 -25.200001
v 34.799999 65.976808 -27.599762
v 34.799999 65.976842 -32.400238
v 32.400238 65.976808 -34.799999
v 27.599760 65.976842 -34.799999
v -25.200001 65.976842 -32.400238
v -25.200001 65.976808 -27.599762
v -27.599760 65.976842 -25.200001
v -32.400238 65.976808 -25.200001
v -34.799999 65.976842 -27.599760
v -34.799999 65.976808 -32.400238
v -32.400238 65.976842 -34.799999
v -27.599762 65.976808 -34.799999
vt 0.500000 0.375000
vt 0.500000 0.812500
vt 0.375000 0.875000
vt 0.437500 0.875000
vt 0.500000 0.875000
vt 0.562500 0.875000
vt 0.625000 0.875000
vt 0.500000 0.937500
vt 0.500000 1.000000
vt 0.437500 0.812500
vt 0.375000 0.812500
vt 0.625000 0.750000
vt 0.625000 0.812500
vt 0.562500 0.812500
vt 0.437500 0.937500
vt 0.437500 1.000000
vt 0.375000 1.000000
vt 0.375000 0.937500
vt 0.625000 0.937500
vt 0.625000 1.000000
vt 0.562500 1.000000
vt 0.562500 0.937500
vt 0.390623 0.750000
vt 0.437500 0.765623
vt 0.421877 0.812500
vt 0.375000 0.796877
vt 0.578123 0.750000
vt 0.625000 0.765623
vt 0.609377 0.812500
vt 0.562500 0.796877
vt 0.390623 0.937500
vt 0.437500 0.953123
vt 0.421877 1.000000
vt 0.375000 0.984377
vt 0.578123 0.937500
vt 0.625000 0.953123
vt 0.609377 1.000000
vt 0.562500 0.984377
vt 0.375000 0.765624
vt 0.375000 0.765623
vt 0.421876 0.750000
vt 0.421877 0.750000
vt 0.437500 0.796876
vt 0.437500 0.796877
vt 0.390624 0.812500
vt 0.390623 0.812500
vt 0.562500 0.765624
vt 0.562500 0.765623
vt 0.609376 0.750000
vt 0.609377 0.750000
vt 0.625000 0.796876
vt 0.625000 0.796877
vt 0.578124 0.812500
vt 0.578123 0.812500
vt 0.375000 0.953124
vt 0.375000 0.953123
vt 0.421876 0.937500
vt 0.421877 0.937500
vt 0.437500 0.984376
vt 0.437500 0.984377
vt 0.390624 1.000000
vt 0.390623 1.000000
vt 0.562500 0.953124
vt 0.562500 0.953123
vt 0.609376 0.937500
vt 0.609377 0.937500
vt 0.625000 0.984376
vt 0.625000 0.984377
vt 0.578124 1.000000
vt 0.578123 1.000000
vt 0.375000 0.750000
vt 0.390623 0.750000
vt 0.437500 0.750000
vt 0.437500 0.765623
vt 0.437500 0.812500
vt 0.421877 0.812500
vt 0.375000 0.812500
vt 0.375000 0.796877
vt 0.562500 0.750000
vt 0.578123 0.750000
vt 0.625000 0.750000
vt 0.625000 0.765623
vt 0.625000 0.812500
vt 0.609377 0.812500
vt 0.562500 0.812500
vt 0.562500 0.796877
vt 0.375000 0.937500
vt 0.390623 0.937500
vt 0.437500 0.937500
vt 0.437500 0.953123
vt 0.437500 1.000000
vt 0.421877 1.000000
vt 0.375000 1.000000
vt 0.375000 0.984377
vt 0.562500 0.937500
vt 0.578123 0.937500
vt 0.625000 0.937500
vt 0.625000 0.953123
vt 0.625000 1.000000
vt 0.609377 1.000000
vt 0.562500 1.000000
vt 0.562500 0.984377
vt 0.375000 0.312500
vt 0.375000 0.599990
vt 0.378750 0.496250
vt 0.621250 0.496250
vt 0.625000 0.437500
vt 0.375000 0.375000
vt 0.625000 0.312500
vt 0.375000 0.437500
vt 0.625000 0.375000
vt 0.437500 0.000000
vt 0.375000 0.150010
vt 0.500000 0.000000
vt 0.437500 0.150010
vt 0.562500 0.000000
vt 0.500000 0.150010
vt 0.625000 0.000000
vt 0.562500 0.150010
vt 0.378750 0.253750
vt 0.437500 0.253750
vt 0.437500 0.312500
vt 0.500000 0.253750
vt 0.562500 0.253750
vt 0.500000 0.312500
vt 0.621250 0.253750
vt 0.621250 0.312500
vt 0.378750 0.312500
vt 0.437500 0.375000
vt 0.562500 0.312500
vt 0.621250 0.375000
vt 0.378750 0.375000
vt 0.562500 0.375000
vt 0.621250 0.437500
vt 0.378750 0.437500
vt 0.437500 0.437500
vt 0.500000 0.437500
vt 0.437500 0.496250
vt 0.562500 0.437500
vt 0.500000 0.496250
vt 0.562500 0.496250
vt 0.437500 0.599990
vt 0.375000 0.750000
vt 0.500000 0.599990
vt 0.437500 0.750000
vt 0.562500 0.599990
vt 0.500000 0.750000
vt 0.625000 0.599990
vt 0.562500 0.750000
vt 0.875000 0.000000
vt 0.875000 0.150010
vt 0.812500 0.150010
vt 0.812500 0.000000
vt 0.750000 0.150010
vt 0.750000 0.000000
vt 0.687500 0.150010
vt 0.687500 0.000000
vt 0.625000 0.150010
vt 0.125000 0.000000
vt 0.187500 0.000000
vt 0.125000 0.150010
vt 0.250000 0.000000
vt 0.187500 0.150010
vt 0.312500 0.000000
vt 0.250000 0.150010
vt 0.375000 0.000000
vt 0.312500 0.150010
vt 0.562500 0.953124
vt 0.562500 0.984377
vt 0.578124 1.000000
vt 0.609377 1.000000
vt 0.625000 0.984376
vt 0.625000 0.953123
vt 0.609376 0.937500
vt 0.578123 0.937500
vt 0.437500 0.953123
vt 0.437500 0.984376
vt 0.421877 1.000000
vt 0.390624 1.000000
vt 0.375000 0.984377
vt 0.375000 0.953124
vt 0.390623 0.937500
vt 0.421876 0.937500
vt 0.562500 0.765624
vt 0.562500 0.796877
vt 0.578124 0.812500
vt 0.609377 0.812500
vt 0.625000 0.796876
vt 0.625000 0.765623
vt 0.609376 0.750000
vt 0.578123 0.750000
vt 0.437500 0.765623
vt 0.437500 0.796876
vt 0.421877 0.812500
vt 0.390624 0.812500
vt 0.375000 0.796877
vt 0.375000 0.765624
vt 0.390623 0.750000
vt 0.421876 0.750000
vn 0.000000 1.000000 0.000000
vn 0.000000 1.000000 0.000000
vn 0.000000 1.000000 0.000000
vn 0.000000 1.000000 0.000000
vn 0.000000 1.000000 0.000000
vn 0.000000 1.000000 0.000000
vn 0.000000 1.000000 0.000000
vn 0.000000 1.000000 0.000000
vn 0.000000 1.000000 0.000000
vn 0.000000 -0.988662 -0.150161
vn 0.000000 -0.995974 -0.089644
vn 0.000000 -1.000000 0.000000
vn 0.000000 -1.000000 0.000000
vn 0.000000 -0.988662 -0.150161
vn 0.000000 -1.000000 -0.000000
vn -0.150161 -0.988662 0.000000
vn 0.000000 -1.000000 0.000000
vn -0.089644 -0.995974 0.000000
vn 0.000000 -1.000000 0.000000
vn 0.000000 -1.000000 0.000000
vn 0.150161 -0.988662 -0.000000
vn 0.089644 -0.995974 0.000000
vn 0.000000 -1.000000 0.000000
vn -0.150161 -0.988662 0.000000
vn 0.000000 -1.000000 0.000000
vn 0.000000 -1.000000 0.000000
vn 0.150161 -0.988662 0.000000
vn 0.000000 -0.995974 0.089644
vn 0.000000 -0.988662 0.150161
vn 0.000000 -0.988662 0.150161
vn -0.400514 -0.824122 -0.400514
vn 0.000000 -1.000000 0.000000
vn 0.035640 -0.993627 -0.106934
vn -0.035640 -0.993627 -0.106934
vn 0.000000 -1.000000 0.000000
vn 0.000000 -1.000000 0.000000
vn 0.106934 -0.993627 0.035640
vn 0.106934 -0.993627 -0.035640
vn 0.000000 -1.000000 0.000000
vn -0.035640 -0.993627 0.106934
vn 0.035640 -0.993627 0.106934
vn -0.106934 -0.993627 -0.035640
vn -0.106934 -0.993627 0.035640
vn 0.400514 -0.824122 -0.400514
vn 0.000000 -1.000000 0.000000
vn 0.035640 -0.993627 -0.106934
vn -0.035640 -0.993627 -0.106934
vn 0.000000 -1.000000 0.000000
vn 0.000000 -1.000000 -0.000000
vn 0.106934 -0.993627 0.035640
vn 0.106934 -0.993627 -0.035640
vn 0.000000 -1.000000 -0.000000
vn -0.035640 -0.993627 0.106934
vn 0.035640 -0.993627 0.106934
vn -0.106934 -0.993627 -0.035640
vn -0.106934 -0.993627 0.035640
vn 0.000000 -1.000000 0.000000
vn 0.034417 -0.994058 -0.103264
vn -0.034417 -0.994058 -0.103264
vn 0.000000 -1.000000 0.000000
vn 0.000000 -1.000000 0.000000
vn 0.103264 -0.994058 0.034417
vn 0.103264 -0.994058 -0.034417
vn -0.400514 -0.824122 0.400514
vn 0.000000 -1.000000 0.000000
vn -0.034417 -0.994058 0.103264
vn 0.034417 -0.994058 0.103264
vn -0.103264 -0.994058 -0.034417
vn -0.103264 -0.994058 0.034417
vn 0.000000 -1.000000 0.000000
vn 0.034417 -0.994058 -0.103264
vn -0.034417 -0.994058 -0.103264
vn 0.000000 -1.000000 0.000000
vn 0.400514 -0.824122 0.400514
vn 0.000000 -1.000000 -0.000000
vn 0.103264 -0.994058 0.034417
vn 0.103264 -0.994058 -0.034417
vn 0.000000 -1.000000 -0.000000
vn -0.034417 -0.994058 0.103264
vn 0.034417 -0.994058 0.103264
vn -0.103264 -0.994058 -0.034417
vn -0.103264 -0.994058 0.034417
vn -0.307343 -0.234900 -0.922151
vn -0.316190 0.000000 -0.948696
vn 0.316191 0.000000 -0.948696
vn 0.307343 -0.234900 -0.922151
vn 0.922151 -0.234900 -0.307343
vn 0.948696 -0.000000 -0.316190
vn 0.948696 -0.000000 0.316190
vn 0.922151 -0.234900 0.307343
vn 0.307343 -0.234900 0.922151
vn 0.316190 -0.000000 0.948696
vn -0.316190 0.000000 0.948696
vn -0.307343 -0.234900 0.922151
vn -0.922151 -0.234900 0.307343
vn -0.948696 0.000000 0.316190
vn -0.948696 0.000000 -0.316190
vn -0.922151 -0.234900 -0.307343
vn 0.316191 0.000000 -0.948696
vn -0.316190 0.000000 -0.948696
vn 0.948696 0.000000 0.316190
vn 0.948696 0.000000 -0.316190
vn -0.316190 0.000000 0.948696
vn 0.316190 -0.000000 0.948696
vn -0.948696 0.000000 -0.316190
vn -0.948696 -0.000000 0.316190
vn -0.307361 -0.234661 -0.922206
vn -0.316190 -0.000000 -0.948696
vn 0.316189 0.000000 -0.948696
vn 0.307361 -0.234661 -0.922206
vn 0.922206 -0.234661 -0.307361
vn 0.948696 -0.000000 -0.316190
vn 0.948696 0.000000 0.316189
vn 0.922206 -0.234661 0.307361
vn 0.307361 -0.234661 0.922206
vn 0.316191 0.000000 0.948696
vn -0.316190 0.000000 0.948696
vn -0.307361 -0.234661 0.922206
vn -0.922206 -0.234661 0.307361
vn -0.948696 -0.000000 0.316190
vn -0.948696 -0.000000 -0.316190
vn -0.922206 -0.234661 -0.307361
vn 0.316189 0.000000 -0.948696
vn -0.316190 -0.000000 -0.948696
vn 0.948696 0.000000 0.316190
vn 0.948696 0.000000 -0.316190
vn -0.316190 0.000000 0.948696
vn 0.316190 0.000000 0.948696
vn -0.948696 0.000000 -0.316190
vn -0.948696 0.000000 0.316190
vn -0.922151 -0.234900 -0.307343
vn -0.307343 -0.234900 -0.922151
vn 0.307343 -0.234900 -0.922151
vn 0.922151 -0.234900 -0.307343
vn 0.922151 -0.234900 0.307343
vn 0.307343 -0.234900 0.922151
vn -0.307343 -0.234900 0.922151
vn -0.922151 -0.234900 0.307343
vn -0.922206 -0.234661 -0.307361
vn -0.307361 -0.234661 -0.922206
vn 0.307361 -0.234661 -0.922206
vn 0.922206 -0.234661 -0.307361
vn 0.922206 -0.234661 0.307361
vn 0.307361 -0.234661 0.922206
vn -0.307361 -0.234661 0.922206
vn -0.922206 -0.234661 0.307361
vn -0.656725 0.370707 0.656725
vn -0.077003 0.994053 0.077003
vn -0.060753 0.998153 0.000000
vn -0.929646 0.368455 0.000000
vn 0.000000 0.368454 0.929646
vn 0.000000 0.998153 0.060753
vn 0.000000 0.371358 0.928490
vn 0.000000 0.998205 0.059886
vn 0.000000 0.368454 0.929646
vn 0.000000 0.998153 0.060753
vn 0.656725 0.370707 0.656725
vn 0.077003 0.994053 0.077003
vn 0.929646 0.368455 0.000000
vn 0.060753 0.998153 0.000000
vn -0.077003 0.994053 -0.077003
vn -0.656725 0.370707 -0.656725
vn -0.929646 0.368455 0.000000
vn -0.060753 0.998153 0.000000
vn 0.000000 0.998153 -0.060753
vn 0.000000 0.368454 -0.929646
vn 0.000000 0.998205 -0.059886
vn 0.000000 0.371358 -0.928490
vn 0.000000 0.998153 -0.060753
vn 0.000000 0.368454 -0.929646
vn 0.077003 0.994053 -0.077003
vn 0.656725 0.370707 -0.656725
vn 0.060753 0.998153 0.000000
vn 0.929646 0.368455 0.000000
vn -0.059886 0.998205 0.000000
vn -0.928490 0.371358 0.000000
vn 0.928490 0.371358 0.000000
vn 0.059886 0.998205 0.000000
s 1
g pCube1
usemtl lambert2SG
f 6/122/1 7/125/2 10/1/3 9/129/4
f 7/125/2 8/130/5 11/133/6 10/1/3
f 9/129/4 10/1/3 13/137/7 12/136/8
f 10/1/3 11/133/6 14/139/9 13/137/7
f 16/145/10 17/147/11 22/2/12 21/10/13
f 17/147/11 18/149/14 23/14/15 22/2/12
f 20/11/16 21/10/13 26/4/17 25/3/18
f 21/10/13 22/2/12 27/5/19 26/4/17
f 22/2/12 23/14/15 28/6/20 27/5/19
f 23/14/15 24/13/21 29/7/22 28/6/20
f 25/3/18 26/4/17 31/15/23 30/18/24
f 26/4/17 27/5/19 32/8/25 31/15/23
f 27/5/19 28/6/20 33/22/26 32/8/25
f 28/6/20 29/7/22 34/19/27 33/22/26
f 31/15/23 32/8/25 3/9/28 2/16/29
f 32/8/25 33/22/26 4/21/30 3/9/28
f 15/143/31 16/145/10 41/73/32 40/41/33 37/72/34 36/71/35
f 16/145/10 21/10/13 46/75/36 45/43/37 42/74/38 41/73/32
f 21/10/13 20/11/16 51/77/39 50/45/40 47/76/41 46/75/36
f 20/11/16 15/143/31 36/71/35 35/39/42 52/78/43 51/77/39
f 18/149/14 19/12/44 61/81/45 60/49/46 57/80/47 56/79/48
f 19/12/44 24/13/21 66/83/49 65/51/50 62/82/51 61/81/45
f 24/13/21 23/14/15 71/85/52 70/53/53 67/84/54 66/83/49
f 23/14/15 18/149/14 56/79/48 55/47/55 72/86/56 71/85/52
f 30/18/24 31/15/23 81/89/57 80/57/58 77/88/59 76/87/60
f 31/15/23 2/16/29 86/91/61 85/59/62 82/90/63 81/89/57
f 2/16/29 1/17/64 91/93/65 90/61/66 87/92/67 86/91/61
f 1/17/64 30/18/24 76/87/60 75/55/68 92/94/69 91/93/65
f 33/22/26 34/19/27 101/97/70 100/65/71 97/96/72 96/95/73
f 34/19/27 5/20/74 106/99/75 105/67/76 102/98/77 101/97/70
f 5/20/74 4/21/30 111/101/78 110/69/79 107/100/80 106/99/75
f 4/21/30 33/22/26 96/95/73 95/63/81 112/102/82 111/101/78
f 39/23/83 177/198/84 178/199/85 44/42/86
f 43/24/87 171/192/88 172/193/89 49/44/90
f 48/25/91 173/194/92 174/195/93 54/46/94
f 53/26/95 175/196/96 176/197/97 38/40/98
f 169/190/99 170/191/100 57/80/47 60/49/46
f 167/188/101 168/189/102 62/82/51 65/51/50
f 165/186/103 166/187/104 67/84/54 70/53/53
f 163/184/105 164/185/106 72/86/56 55/47/55
f 79/31/107 161/182/108 162/183/109 84/58/110
f 83/32/111 155/176/112 156/177/113 89/60/114
f 88/33/115 157/178/116 158/179/117 94/62/118
f 93/34/119 159/180/120 160/181/121 78/56/122
f 153/174/123 154/175/124 97/96/72 100/65/71
f 151/172/125 152/173/126 102/98/77 105/67/76
f 149/170/127 150/171/128 107/100/80 110/69/79
f 147/168/129 148/169/130 112/102/82 95/63/81
f 38/40/98 39/23/83 44/42/86 43/24/87 49/44/90 48/25/91 54/46/94 53/26/95
f 58/48/131 59/27/132 64/50/133 63/28/134 69/52/135 68/29/136 74/54/137 73/30/138
f 78/56/122 79/31/107 84/58/110 83/32/111 89/60/114 88/33/115 94/62/118 93/34/119
f 98/64/139 99/35/140 104/66/141 103/36/142 109/68/143 108/37/144 114/70/145 113/38/146
f 176/197/97 177/198/84 39/23/83 38/40/98
f 178/199/85 171/192/88 43/24/87 44/42/86
f 172/193/89 173/194/92 48/25/91 49/44/90
f 174/195/93 175/196/96 53/26/95 54/46/94
f 55/47/55 57/80/47 170/191/100 163/184/105
f 60/49/46 62/82/51 168/189/102 169/190/99
f 65/51/50 67/84/54 166/187/104 167/188/101
f 70/53/53 72/86/56 164/185/106 165/186/103
f 160/181/121 161/182/108 79/31/107 78/56/122
f 162/183/109 155/176/112 83/32/111 84/58/110
f 156/177/113 157/178/116 88/33/115 89/60/114
f 158/179/117 159/180/120 93/34/119 94/62/118
f 95/63/81 97/96/72 154/175/124 147/168/129
f 100/65/71 102/98/77 152/173/126 153/174/123
f 105/67/76 107/100/80 150/171/128 151/172/125
f 110/69/79 112/102/82 148/169/130 149/170/127
f 35/39/42 36/71/35 37/72/34
f 40/41/33 41/73/32 42/74/38
f 45/43/37 46/75/36 47/76/41
f 50/45/40 51/77/39 52/78/43
f 55/47/55 56/79/48 57/80/47
f 60/49/46 61/81/45 62/82/51
f 65/51/50 66/83/49 67/84/54
f 70/53/53 71/85/52 72/86/56
f 75/55/68 76/87/60 77/88/59
f 80/57/58 81/89/57 82/90/63
f 85/59/62 86/91/61 87/92/67
f 90/61/66 91/93/65 92/94/69
f 95/63/81 96/95/73 97/96/72
f 100/65/71 101/97/70 102/98/77
f 105/67/76 106/99/75 107/100/80
f 110/69/79 111/101/78 112/102/82
f 115/113/147 116/120/148 135/128/149 136/103/150
f 116/120/148 115/113/147 117/115/151 118/121/152
f 118/121/152 117/115/151 119/117/153 120/123/154
f 120/123/154 119/117/153 121/119/155 122/124/156
f 122/124/156 121/119/155 124/158/157 123/126/158
f 123/126/158 124/158/157 138/109/159 137/127/160
f 125/105/161 126/104/162 144/110/163 143/135/164
f 126/104/162 125/105/161 127/138/165 128/142/166
f 128/142/166 127/138/165 129/140/167 130/144/168
f 130/144/168 129/140/167 131/141/169 132/146/170
f 132/146/170 131/141/169 133/106/171 134/148/172
f 134/148/172 133/106/171 145/134/173 146/107/174
f 136/103/150 135/128/149 139/132/175 140/108/176
f 137/127/160 138/109/159 142/111/177 141/131/178
f 140/108/176 139/132/175 143/135/164 144/110/163
f 141/131/178 142/111/177 146/107/174 145/134/173
f 1/166/64 2/112/29 117/115/151 115/113/147
f 2/112/29 3/114/28 119/117/153 117/115/151
f 3/114/28 4/116/30 121/119/155 119/117/153
f 4/116/30 5/118/74 124/158/157 121/119/155
f 116/120/148 118/121/152 6/122/1 135/128/149
f 118/121/152 120/123/154 7/125/2 6/122/1
f 120/123/154 122/124/156 8/130/5 7/125/2
f 122/124/156 123/126/158 137/127/160 8/130/5
f 135/128/149 6/122/1 9/129/4 139/132/175
f 8/130/5 137/127/160 141/131/178 11/133/6
f 139/132/175 9/129/4 12/136/8 143/135/164
f 11/133/6 141/131/178 145/134/173 14/139/9
f 143/135/164 12/136/8 127/138/165 125/105/161
f 12/136/8 13/137/7 129/140/167 127/138/165
f 13/137/7 14/139/9 131/141/169 129/140/167
f 14/139/9 145/134/173 133/106/171 131/141/169
f 126/104/162 128/142/166 16/145/10 15/143/31
f 128/142/166 130/144/168 17/147/11 16/145/10
f 130/144/168 132/146/170 18/149/14 17/147/11
f 132/146/170 134/148/172 19/12/44 18/149/14
f 24/153/21 19/150/44 134/151/172 146/152/174
f 29/155/22 24/153/21 146/152/174 142/154/177
f 34/157/27 29/155/22 142/154/177 138/156/159
f 5/118/74 34/157/27 138/156/159 124/158/157
f 15/159/31 20/160/16 144/163/163 126/161/162
f 20/160/16 25/162/18 140/165/176 144/163/163
f 25/162/18 30/164/24 136/167/150 140/165/176
f 30/164/24 1/166/64 115/113/147 136/167/150
f 113/38/146 148/169/130 147/168/129 98/64/139
f 149/170/127 148/169/130 113/38/146 114/70/145
f 108/37/144 150/171/128 149/170/127 114/70/145
f 151/172/125 150/171/128 108/37/144 109/68/143
f 103/36/142 152/173/126 151/172/125 109/68/143
f 153/174/123 152/173/126 103/36/142 104/66/141
f 99/35/140 154/175/124 153/174/123 104/66/141
f 147/168/129 154/175/124 99/35/140 98/64/139
f 156/177/113 155/176/112 82/90/63 85/59/62
f 85/59/62 87/92/67 157/178/116 156/177/113
f 158/179/117 157/178/116 87/92/67 90/61/66
f 90/61/66 92/94/69 159/180/120 158/179/117
f 160/181/121 159/180/120 92/94/69 75/55/68
f 75/55/68 77/88/59 161/182/108 160/181/121
f 162/183/109 161/182/108 77/88/59 80/57/58
f 80/57/58 82/90/63 155/176/112 162/183/109
f 73/30/138 164/185/106 163/184/105 58/48/131
f 165/186/103 164/185/106 73/30/138 74/54/137
f 68/29/136 166/187/104 165/186/103 74/54/137
f 167/188/101 166/187/104 68/29/136 69/52/135
f 63/28/134 168/189/102 167/188/101 69/52/135
f 169/190/99 168/189/102 63/28/134 64/50/133
f 59/27/132 170/191/100 169/190/99 64/50/133
f 163/184/105 170/191/100 59/27/132 58/48/131
f 172/193/89 171/192/88 42/74/38 45/43/37
f 45/43/37 47/76/41 173/194/92 172/193/89
f 174/195/93 173/194/92 47/76/41 50/45/40
f 50/45/40 52/78/43 175/196/96 174/195/93
f 176/197/97 175/196/96 52/78/43 35/39/42
f 35/39/42 37/72/34 177/198/84 176/197/97
f 178/199/85 177/198/84 37/72/34 40/41/33
f 40/41/33 42/74/38 171/192/88 178/199/85
